<?xml version="1.0" encoding="utf-8"?>
<!-- Generator: Adobe Illustrator 26.3.1, SVG Export Plug-In . SVG Version: 6.00 Build 0)  -->
<svg version="1.1" id="Layer_1" xmlns="http://www.w3.org/2000/svg" xmlns:xlink="http://www.w3.org/1999/xlink" x="0px" y="0px"
	 viewBox="0 0 400 80" style="enable-background:new 0 0 400 80;" xml:space="preserve">
<style type="text/css">
	.st0{fill:none;}
	.st1{fill:#FF2D00;}
	.st2{fill:url(#Red_Shadow__x23_3_00000101822420881908703010000015501185432048843441_);}
	.st3{fill:url(#Red_Shadow__x23_2_00000075142415479956774620000012109951625951140262_);}
	.st4{fill:url(#Red_Shadow__x23_1_00000146498132265540650400000017142922662013910169_);}
	.st5{fill:#0032FF;}
	.st6{fill:url(#Blue_Shadow_00000086669765010576045520000002614811721961852595_);}
	.st7{fill:#FFFFFF;}
	.st8{fill:url(#Yellow_Shadow_00000183931408198928825630000001056702737115907235_);}
	.st9{fill:url(#Trophy_00000139269599616739105790000017851468124430720701_);}
	.st10{fill:url(#Trophy_Shadow__x23_2_00000045600128494841413220000000342858907297417918_);}
	.st11{fill:url(#Trophy_Shadow__x23_1_00000178195277225230062580000005553845759571484049_);}
</style>
<rect x="116" y="2.3" class="st0" width="170" height="76.3"/>
<g id="Symbol_13_">
	<g id="Red_Heart_38_">
		<path class="st1" d="M272.7,40.4c8.2-2.8,12.9-10.6,12.2-19.4c-1.4-14.5-21.8-21.9-36.8-15.2c-15,6.7-20.4,26.7-34.2,34.6
			c13.8,7.9,19.2,27.9,34.2,34.6c15,6.7,35.4-0.7,36.8-15.2C285.6,51,280.9,43.2,272.7,40.4z"/>
	</g>
	<g id="Red_Shadow_12_">
		
			<linearGradient id="Red_Shadow__x23_3_00000042713889271475019060000014019250985118981011_" gradientUnits="userSpaceOnUse" x1="1373.538" y1="24.9992" x2="1374.6455" y2="39.6192" gradientTransform="matrix(1 0 0 1 -1105.4136 0)">
			<stop  offset="0" style="stop-color:#FF2D00"/>
			<stop  offset="1" style="stop-color:#D70000"/>
		</linearGradient>
		<path id="Red_Shadow__x23_3_12_" style="fill:url(#Red_Shadow__x23_3_00000042713889271475019060000014019250985118981011_);" d="
			M277.1,33.5c3.3-5.6,2.1-12.7-2.3-17.5c-1.1-1.2-2.5-2.3-4.3-3.1c-5.4-2.4-11.5-0.8-14,0c2-0.7,4.3-0.8,6.6-0.3
			c6.9,1.6,12.7,6.1,13.3,12.9c0.5,6.8-3.9,12.7-10.2,14.9C266.3,40.4,273,40.4,277.1,33.5z"/>
		
			<linearGradient id="Red_Shadow__x23_2_00000074428354976072410400000012875358071810232219_" gradientUnits="userSpaceOnUse" x1="1342.1805" y1="29.073" x2="1339.5104" y2="28.6018" gradientTransform="matrix(1 0 0 1 -1105.4136 0)">
			<stop  offset="0" style="stop-color:#FF2D00"/>
			<stop  offset="1" style="stop-color:#D70000"/>
		</linearGradient>
		<path id="Red_Shadow__x23_2_12_" style="fill:url(#Red_Shadow__x23_2_00000074428354976072410400000012875358071810232219_);" d="
			M235.6,27.1c-1.3-0.4-3.1,0.4-2.5,3c0,0,1.3-2.6,3.8-1.7C236.7,27.9,236.4,27.4,235.6,27.1z"/>
		
			<linearGradient id="Red_Shadow__x23_1_00000021113271127170197520000014100222934011935409_" gradientUnits="userSpaceOnUse" x1="1331.886" y1="42.29" x2="1343.5192" y2="61.333" gradientTransform="matrix(1 0 0 1 -1105.4136 0)">
			<stop  offset="0" style="stop-color:#D70000"/>
			<stop  offset="0.3024" style="stop-color:#DF0900"/>
			<stop  offset="0.7908" style="stop-color:#F42100"/>
			<stop  offset="1" style="stop-color:#FF2D00"/>
		</linearGradient>
		<path id="Red_Shadow__x23_1_12_" style="fill:url(#Red_Shadow__x23_1_00000021113271127170197520000014100222934011935409_);" d="
			M225.5,42.6c-1.8,0.3-3.2,0.4-3.2,0.4s3.7,0.7,10.5,9.6c3.8,5,6,8.5,12.1,12.5C237.2,59.4,233,48.8,225.5,42.6z"/>
	</g>
	<path id="Red_Heart_36_" class="st5" d="M243.1,31.3c-3,6.3-9.8,8.1-12.7,9.1c6.8,3.9,10.6,13.7,17.7,17.2
		c7.5,3.3,17.6-0.3,18.3-7.6c0.3-4.4-2.5-8.3-6.6-9.7c4.1-1.4,6.9-5.3,6.6-9.6c-0.7-7.5-11-10.6-17.9-7.7l-4.7,3.7
		C244.1,28.5,243.6,30.3,243.1,31.3z"/>
	
		<linearGradient id="Blue_Shadow_00000155848195196272442130000004879730639706573236_" gradientUnits="userSpaceOnUse" x1="242.8312" y1="31.2415" x2="232.4223" y2="41.4833">
		<stop  offset="0" style="stop-color:#000000"/>
		<stop  offset="1" style="stop-color:#0032FF"/>
	</linearGradient>
	<path id="Blue_Shadow_12_" style="fill:url(#Blue_Shadow_00000155848195196272442130000004879730639706573236_);" d="M230.4,40.4
		c0.6,0.3,1.2,0.7,1.8,1.2c5.2-1.7,11.5-5.4,11.8-13.4l0,0c-0.1,1.2-0.4,2.4-0.8,3.2C240.1,37.6,233.3,39.5,230.4,40.4z"/>
	<path id="Twenty-Three_13_" class="st7" d="M266.3,40.4c6.3-2.2,10.6-8.2,10.2-14.9c-0.6-6.8-6.5-11.3-13.3-12.9
		c-7.3-1.7-14.4,3.4-14.6,10.5c6.9-2.8,17.2,0.2,17.9,7.7c0.3,4.4-2.5,8.2-6.6,9.6c4.1,1.4,6.9,5.3,6.6,9.7
		c-0.7,7.2-10.8,10.9-18.3,7.6c-7.1-3.5-10.9-13.3-17.7-17.2c2.9-0.9,9.7-2.8,12.7-9.1c1.1-2.3,2-7.9-4.2-9.3
		c-4.9-1.1-10.9,3.8-5.8,8.1c-0.6-2.6,1.2-3.4,2.5-3c2.6,0.8,0.6,4.2-0.5,5.5c-4.4,5.1-12.7,7.8-12.7,7.8
		c10.6,6,14.7,21.2,25.7,26.6c11.7,5.2,27.2-0.5,28.3-11.7C276.9,48.6,272.6,42.6,266.3,40.4z"/>
	
		<linearGradient id="Yellow_Shadow_00000150791291076727007460000004764711429884235930_" gradientUnits="userSpaceOnUse" x1="272.6938" y1="41.5446" x2="269.4028" y2="57.2316">
		<stop  offset="0" style="stop-color:#FFBE00"/>
		<stop  offset="1" style="stop-color:#FFFFFF"/>
	</linearGradient>
	<path id="Yellow_Shadow_12_" style="fill:url(#Yellow_Shadow_00000150791291076727007460000004764711429884235930_);" d="
		M274.2,53.3c0,11.3-12.6,15.3-12.6,15.3l0.1,0c7.6-1.3,14-6.2,14.7-13.2c0.5-6.8-3.9-12.8-10.2-14.9
		C266.3,40.4,274.2,43.9,274.2,53.3z"/>
	
		<linearGradient id="Trophy_00000156583425429191200260000017893062389741022604_" gradientUnits="userSpaceOnUse" x1="235.9295" y1="37.6824" x2="250.3754" y2="39.5168">
		<stop  offset="0" style="stop-color:#FFFFFF"/>
		<stop  offset="8.989097e-02" style="stop-color:#FFFCF2"/>
		<stop  offset="0.2568" style="stop-color:#FFF3CF"/>
		<stop  offset="0.4825" style="stop-color:#FFE597"/>
		<stop  offset="0.755" style="stop-color:#FFD14B"/>
		<stop  offset="1" style="stop-color:#FFBE00"/>
	</linearGradient>
	<path id="Trophy_13_" style="fill:url(#Trophy_00000156583425429191200260000017893062389741022604_);" d="M253.7,43.5
		c-0.1-0.7-0.4-1.3-0.8-1.8c2.8-0.3,3.5-1.3,3.5-1.3s-0.8-1.1-3.6-1.3c0.6-0.2,1.3-0.4,1.8-0.8c1.2-0.8,2.1-2.2,2.8-4.3
		c1-3.2,1.4-7.2,2.1-10.9c-3.5-1.3-7.8-1.4-11.2,0c0.2-7,7.3-12.2,14.6-10.5c0.4,0.1,0.4,0.1,0,0c-3.8-0.9-8.7-1.2-11.6-1.2
		c-3.4,0-9.1,0.3-13.1,1.6c5.6,4.2,4.7,14.4,6.9,21c0.7,2.1,1.7,3.5,2.8,4.3c0.6,0.4,1.2,0.7,1.8,0.8c-2.8,0.3-3.6,1.3-3.6,1.3
		s0.8,1,3.5,1.3c-0.3,0.4-0.6,1-0.8,1.8c-0.5,2.8-1.8,13.3-6.1,20c1.5,1.4,3.2,2.6,5.1,3.5c5.2,2.3,11.1,2.5,16.2,0.9
		C256.3,63.7,254.3,46.6,253.7,43.5z"/>
	<g id="Trophy_Shadow_12_">
		
			<radialGradient id="Trophy_Shadow__x23_2_00000090980343069804985720000008711169101230995120_" cx="256.2891" cy="40.3481" r="26.2751" gradientUnits="userSpaceOnUse">
			<stop  offset="0" style="stop-color:#FF2D00"/>
			<stop  offset="1" style="stop-color:#FFBE00"/>
		</radialGradient>
		
			<path id="Trophy_Shadow__x23_2_11_" style="fill:url(#Trophy_Shadow__x23_2_00000090980343069804985720000008711169101230995120_);" d="
			M253.7,43.5c-0.1-0.7-0.4-1.3-0.8-1.8c2.8-0.3,3.5-1.3,3.5-1.3s-0.8-1.1-3.6-1.3c0.6-0.2,1.3-0.4,1.8-0.8c1.2-0.8,2.1-2.2,2.8-4.3
			c1-3.2,1.4-7.2,2.1-10.9c-0.7-0.3-1.5-0.5-2.2-0.6c-0.1,1-0.2,2-0.3,3c-0.7,10.1-3.9,12.9-5.1,13.7c1.8,0,2.9,1.4,2.9,1.4
			s-1.1,1.4-2.7,1.4c0,0,0,0,0,0c0,0,0,0,0,0c0,0,0,0,0,0c0.3,0.4,0.7,1.3,0.8,3.5c0.6,13.7,3.4,20.4,6,23.6c0.1,0,0.1,0,0.2,0
			c0,0,0.1,0,0.1,0c1.7-0.1,3.4-0.4,5-0.9C256.3,63.7,254.3,46.6,253.7,43.5z"/>
		
			<linearGradient id="Trophy_Shadow__x23_1_00000177455413097352004020000010534941801315332749_" gradientUnits="userSpaceOnUse" x1="1366.9703" y1="25.1044" x2="1356.3629" y2="22.1291" gradientTransform="matrix(1 0 0 1 -1105.4136 0)">
			<stop  offset="0" style="stop-color:#FFBE00"/>
			<stop  offset="1" style="stop-color:#FF2D00"/>
		</linearGradient>
		
			<path id="Trophy_Shadow__x23_1_12_" style="fill:url(#Trophy_Shadow__x23_1_00000177455413097352004020000010534941801315332749_);" d="
			M248.5,23.1L248.5,23.1c0,0,7.5-0.5,10.7,2.6c0.1-0.9,0.3-1.8,0.4-2.6C256.1,21.7,251.9,21.6,248.5,23.1z"/>
	</g>
</g>
<g id="Permanent_Competition_Mark_46_">
	<path id="Countries_Names" class="st7" d="M119.3,58.2c-0.2-0.1-0.4-0.1-0.7-0.1h-1.2v5h0.7v-0.5c0-0.4,0-0.7,0-0.9
		c0-0.2,0-0.4-0.1-0.5l0,0c0.1,0.1,0.2,0.2,0.4,0.2c0.1,0.1,0.3,0.1,0.5,0.1c0.4,0,0.7-0.2,0.9-0.5c0.2-0.3,0.3-0.7,0.3-1.2
		c0-0.5-0.1-0.9-0.3-1.1C119.7,58.4,119.5,58.3,119.3,58.2z M119.3,60.5c-0.1,0.1-0.2,0.2-0.3,0.3c-0.1,0-0.2,0.1-0.4,0.1h-0.5v-2
		h0.5c0.2,0,0.3,0,0.4,0.1c0.1,0,0.2,0.1,0.3,0.3c0.1,0.1,0.1,0.4,0.1,0.7C119.4,60.2,119.3,60.4,119.3,60.5z M122.9,58.1h0.7v5
		h-0.7v-2.2h-1.2v2.2h-0.7v-5h0.7v1.1c0,0.6,0,1.1-0.1,1.5l0,0c0.1-0.1,0.2-0.2,0.4-0.3c0.2-0.1,0.3-0.2,0.5-0.2c0.1,0,0.3,0,0.4,0
		V58.1z M124.6,58.1h0.7v5h-0.7V58.1z M128.5,62.3L128.5,62.3l0,0.8h-2.2v-5h0.7v3.2c0,0.4,0,0.9-0.1,1.5l0,0
		c0.1-0.1,0.3-0.2,0.6-0.4C127.9,62.4,128.2,62.3,128.5,62.3z M129.3,58.1h0.7v5h-0.7V58.1z M132.8,58.2c-0.2-0.1-0.4-0.1-0.7-0.1
		H131v5h0.7v-0.5c0-0.4,0-0.7,0-0.9c0-0.2,0-0.4-0.1-0.5l0,0c0.1,0.1,0.2,0.2,0.4,0.2c0.1,0.1,0.3,0.1,0.5,0.1
		c0.4,0,0.7-0.2,0.9-0.5c0.2-0.3,0.3-0.7,0.3-1.2c0-0.5-0.1-0.9-0.3-1.1C133.2,58.4,133,58.3,132.8,58.2z M132.8,60.5
		c-0.1,0.1-0.2,0.2-0.3,0.3c-0.1,0-0.2,0.1-0.4,0.1h-0.5v-2h0.5c0.2,0,0.3,0,0.4,0.1c0.1,0,0.2,0.1,0.3,0.3c0.1,0.1,0.1,0.4,0.1,0.7
		C132.9,60.2,132.8,60.4,132.8,60.5z M136.2,58.2c-0.2-0.1-0.4-0.1-0.7-0.1h-1.2v5h0.7v-0.5c0-0.4,0-0.7,0-0.9c0-0.2,0-0.4-0.1-0.5
		l0,0c0.1,0.1,0.2,0.2,0.4,0.2c0.1,0.1,0.3,0.1,0.5,0.1c0.4,0,0.7-0.2,0.9-0.5c0.2-0.3,0.3-0.7,0.3-1.2c0-0.5-0.1-0.9-0.3-1.1
		C136.6,58.4,136.5,58.3,136.2,58.2z M136.2,60.5c-0.1,0.1-0.2,0.2-0.3,0.3c-0.1,0-0.2,0.1-0.4,0.1h-0.5v-2h0.5c0.2,0,0.3,0,0.4,0.1
		c0.1,0,0.2,0.1,0.3,0.3c0.1,0.1,0.1,0.4,0.1,0.7C136.4,60.2,136.3,60.4,136.2,60.5z M137.9,58.1h0.7v5h-0.7V58.1z M141.6,58.1h0.7
		v5h-0.6c-0.1-0.5-0.2-1.1-0.3-1.7c-0.2-0.6-0.3-1.1-0.6-1.6c-0.2-0.3-0.3-0.6-0.5-0.7v4h-0.7v-5h0.5c0.4,0.2,0.7,0.6,0.9,1.1
		c0.3,0.5,0.5,1.2,0.6,2l0.1,0c0-0.4,0-0.7-0.1-0.9c0-0.3,0-0.5,0-0.9V58.1z M143.3,58.1h2.3v0.8H144v0.3c0,0.3,0,0.6,0,0.8
		c0,0.3,0,0.4-0.1,0.6l0,0c0.1-0.1,0.3-0.3,0.6-0.3c0.3-0.1,0.5-0.1,0.9-0.1v0.8H144v1.5h1.5v0.8h-2.3V58.1z M148.6,61
		c0.1,0.2,0.1,0.4,0.1,0.7c0,0.5-0.1,0.9-0.4,1.2c-0.3,0.2-0.6,0.4-1.1,0.4c-0.2,0-0.4,0-0.5-0.1c-0.2,0-0.3-0.1-0.5-0.2v-0.8
		c0.3,0.2,0.6,0.3,0.9,0.3c0.3,0,0.5-0.1,0.6-0.2c0.1-0.1,0.2-0.3,0.2-0.5c0-0.2,0-0.3-0.1-0.4c-0.1-0.1-0.1-0.2-0.2-0.3
		c-0.1-0.1-0.2-0.1-0.3-0.2l-0.1-0.1c-0.3-0.1-0.5-0.2-0.6-0.3c-0.1-0.1-0.2-0.2-0.3-0.4c-0.1-0.2-0.1-0.4-0.1-0.6
		c0-0.4,0.1-0.8,0.4-1c0.2-0.2,0.6-0.4,1-0.4c0.2,0,0.3,0,0.5,0.1c0.2,0,0.3,0.1,0.4,0.2V59c-0.1-0.1-0.2-0.2-0.4-0.2
		c-0.1,0-0.3-0.1-0.5-0.1c-0.2,0-0.3,0-0.4,0.1c-0.1,0-0.2,0.1-0.2,0.2c-0.1,0.1-0.1,0.2-0.1,0.4c0,0.1,0,0.2,0.1,0.3
		c0,0.1,0.1,0.2,0.2,0.2c0.1,0.1,0.2,0.1,0.3,0.2c0.3,0.1,0.5,0.3,0.6,0.4C148.4,60.7,148.5,60.8,148.6,61z M150.6,60.4
		c0.1,0.1,0.1,0.2,0.1,0.3c0,0.2,0,0.3-0.1,0.3c-0.1,0.1-0.2,0.1-0.3,0.1c-0.2,0-0.3,0-0.3-0.1c-0.1-0.1-0.1-0.2-0.1-0.3
		c0-0.2,0-0.3,0.1-0.3c0.1-0.1,0.2-0.1,0.3-0.1C150.4,60.3,150.5,60.3,150.6,60.4z M152,58.1h2.2v3.6c0,0.3,0,0.6-0.1,0.8
		c-0.1,0.2-0.2,0.4-0.4,0.5c-0.2,0.1-0.4,0.2-0.7,0.2c-0.3,0-0.5-0.1-0.7-0.2c-0.2-0.1-0.3-0.3-0.4-0.5c-0.1-0.2-0.1-0.5-0.1-0.8
		v-0.4h0.7v0.4c0,0.2,0,0.3,0.1,0.4c0,0.1,0.1,0.2,0.2,0.3c0.1,0.1,0.2,0.1,0.3,0.1c0.1,0,0.2,0,0.3-0.1c0.1-0.1,0.1-0.1,0.2-0.3
		c0-0.1,0.1-0.3,0.1-0.4v-1.8c0-0.3,0-0.6,0-0.8c0-0.3,0-0.4,0.1-0.6l0,0c-0.1,0.1-0.3,0.3-0.6,0.4c-0.3,0.1-0.6,0.1-0.9,0.1V58.1z
		 M156.9,58.1h-1c-0.2,0.8-0.4,1.6-0.6,2.5c-0.2,0.9-0.3,1.7-0.4,2.5h0.7c0-0.4,0.1-0.7,0.1-1.1h1.2c0,0.4,0.1,0.7,0.1,1.1h0.7
		c-0.1-0.8-0.2-1.6-0.4-2.5C157.3,59.7,157.1,58.9,156.9,58.1z M155.9,61.3c0.2-1.1,0.3-1.9,0.5-2.5h0.1c0.1,0.5,0.3,1.4,0.5,2.5
		H155.9z M160.5,58.2c-0.2-0.1-0.4-0.1-0.7-0.1h-1.2v5h0.7v-0.5c0-0.4,0-0.7,0-0.9c0-0.2,0-0.4-0.1-0.5l0,0c0.1,0.1,0.2,0.2,0.4,0.2
		c0.1,0.1,0.3,0.1,0.5,0.1c0.4,0,0.7-0.2,0.9-0.5c0.2-0.3,0.3-0.7,0.3-1.2c0-0.5-0.1-0.9-0.3-1.1C160.9,58.4,160.7,58.3,160.5,58.2z
		 M160.5,60.5c-0.1,0.1-0.2,0.2-0.3,0.3c-0.1,0-0.2,0.1-0.4,0.1h-0.5v-2h0.5c0.2,0,0.3,0,0.4,0.1c0.1,0,0.2,0.1,0.3,0.3
		c0.1,0.1,0.1,0.4,0.1,0.7C160.6,60.2,160.5,60.4,160.5,60.5z M163.8,58.1h-1c-0.2,0.8-0.4,1.6-0.6,2.5c-0.2,0.9-0.3,1.7-0.4,2.5
		h0.7c0-0.4,0.1-0.7,0.1-1.1h1.2c0,0.4,0.1,0.7,0.1,1.1h0.7c-0.1-0.8-0.2-1.6-0.4-2.5C164.2,59.7,164,58.9,163.8,58.1z M162.8,61.3
		c0.2-1.1,0.3-1.9,0.5-2.5h0.1c0.1,0.5,0.3,1.4,0.5,2.5H162.8z M167.5,58.1h0.7v5h-0.6c-0.1-0.5-0.2-1.1-0.3-1.7
		c-0.2-0.6-0.3-1.1-0.6-1.6c-0.2-0.3-0.3-0.6-0.5-0.7v4h-0.7v-5h0.5c0.4,0.2,0.7,0.6,0.9,1.1c0.3,0.5,0.5,1.2,0.6,2l0.1,0
		c0-0.4,0-0.7-0.1-0.9c0-0.3,0-0.5,0-0.9V58.1z M170.2,60.4c0.1,0.1,0.1,0.2,0.1,0.3c0,0.2,0,0.3-0.1,0.3c-0.1,0.1-0.2,0.1-0.3,0.1
		c-0.2,0-0.3,0-0.3-0.1c-0.1-0.1-0.1-0.2-0.1-0.3c0-0.2,0-0.3,0.1-0.3c0.1-0.1,0.2-0.1,0.3-0.1C170,60.3,170.2,60.3,170.2,60.4z
		 M171.5,58.1h0.7v5h-0.7V58.1z M175.2,58.1h0.7v5h-0.6c-0.1-0.5-0.2-1.1-0.3-1.7c-0.2-0.6-0.3-1.1-0.6-1.6
		c-0.2-0.3-0.3-0.6-0.5-0.7v4h-0.7v-5h0.5c0.4,0.2,0.7,0.6,0.9,1.1c0.3,0.5,0.5,1.2,0.6,2l0.1,0c0-0.4,0-0.7-0.1-0.9
		c0-0.3,0-0.5,0-0.9V58.1z M178.1,58.1h-1.2v5h0.7c0-0.1,0-0.1,0-0.2c0-0.1,0-0.1,0-0.2v0v0l0,0c0.1,0.2,0.2,0.3,0.4,0.4
		c0.1,0.1,0.3,0.1,0.5,0.1c0.2,0,0.5-0.1,0.6-0.3c0.2-0.2,0.3-0.5,0.4-0.9c0.1-0.4,0.1-0.8,0.1-1.4c0-0.8-0.1-1.5-0.4-1.9
		C179,58.3,178.7,58.1,178.1,58.1z M178.8,62.1c-0.1,0.3-0.3,0.4-0.6,0.4c-0.1,0-0.2,0-0.3,0c-0.1,0-0.2,0-0.3-0.1v-3.5h0.5
		c0.3,0,0.5,0.2,0.6,0.5c0.1,0.3,0.2,0.7,0.2,1.3C178.9,61.3,178.9,61.8,178.8,62.1z M181.9,58.1c-0.5,0-0.9,0.2-1.1,0.6
		c-0.2,0.4-0.4,1.1-0.4,2s0.1,1.5,0.4,2c0.2,0.4,0.6,0.6,1.1,0.6c0.5,0,0.9-0.2,1.1-0.6c0.2-0.4,0.4-1.1,0.4-2s-0.1-1.5-0.4-2
		C182.8,58.3,182.4,58.1,181.9,58.1z M182.5,62c-0.1,0.3-0.3,0.4-0.6,0.4c-0.3,0-0.5-0.1-0.6-0.4c-0.1-0.3-0.2-0.7-0.2-1.4
		c0-0.6,0.1-1.1,0.2-1.4c0.1-0.3,0.3-0.4,0.6-0.4c0.3,0,0.5,0.1,0.6,0.4c0.1,0.3,0.2,0.7,0.2,1.4C182.7,61.3,182.6,61.8,182.5,62z
		 M186.3,58.1h0.7v5h-0.6c-0.1-0.5-0.2-1.1-0.3-1.7c-0.2-0.6-0.3-1.1-0.6-1.6c-0.2-0.3-0.3-0.6-0.5-0.7v4h-0.7v-5h0.5
		c0.4,0.2,0.7,0.6,0.9,1.1c0.3,0.5,0.5,1.2,0.6,2l0.1,0c0-0.4,0-0.7-0.1-0.9c0-0.3,0-0.5,0-0.9V58.1z M188,58.1h2.3v0.8h-1.5v0.3
		c0,0.3,0,0.6,0,0.8c0,0.3,0,0.4-0.1,0.6l0,0c0.1-0.1,0.3-0.3,0.6-0.3c0.3-0.1,0.5-0.1,0.9-0.1v0.8h-1.4v1.5h1.5v0.8H188V58.1z
		 M193.3,61c0.1,0.2,0.1,0.4,0.1,0.7c0,0.5-0.1,0.9-0.4,1.2c-0.3,0.2-0.6,0.4-1.1,0.4c-0.2,0-0.4,0-0.5-0.1c-0.2,0-0.3-0.1-0.5-0.2
		v-0.8c0.3,0.2,0.6,0.3,0.9,0.3c0.3,0,0.5-0.1,0.6-0.2c0.1-0.1,0.2-0.3,0.2-0.5c0-0.2,0-0.3-0.1-0.4c-0.1-0.1-0.1-0.2-0.2-0.3
		c-0.1-0.1-0.2-0.1-0.3-0.2l-0.1-0.1c-0.3-0.1-0.5-0.2-0.6-0.3c-0.1-0.1-0.2-0.2-0.3-0.4c-0.1-0.2-0.1-0.4-0.1-0.6
		c0-0.4,0.1-0.8,0.4-1c0.2-0.2,0.6-0.4,1-0.4c0.2,0,0.3,0,0.5,0.1c0.2,0,0.3,0.1,0.4,0.2V59c-0.1-0.1-0.2-0.2-0.4-0.2
		c-0.1,0-0.3-0.1-0.5-0.1c-0.2,0-0.3,0-0.4,0.1c-0.1,0-0.2,0.1-0.2,0.2c-0.1,0.1-0.1,0.2-0.1,0.4c0,0.1,0,0.2,0.1,0.3
		c0,0.1,0.1,0.2,0.2,0.2c0.1,0.1,0.2,0.1,0.3,0.2c0.3,0.1,0.5,0.3,0.6,0.4C193.1,60.7,193.2,60.8,193.3,61z M194.2,58.1h0.7v5h-0.7
		V58.1z M198.3,60.6c-0.2-0.9-0.4-1.7-0.6-2.5h-1c-0.2,0.8-0.4,1.6-0.6,2.5c-0.2,0.9-0.3,1.7-0.4,2.5h0.7c0-0.4,0.1-0.7,0.1-1.1h1.2
		c0,0.4,0.1,0.7,0.1,1.1h0.7C198.6,62.4,198.5,61.5,198.3,60.6z M196.7,61.3c0.2-1.1,0.3-1.9,0.5-2.5h0.1c0.1,0.5,0.3,1.4,0.5,2.5
		H196.7z"/>
	<path id="Competition_Name_46_" class="st7" d="M126.8,54.1h-0.7c-0.3,0-0.8-0.1-1.2-0.7c-0.6-1-1.3-2.6-1.7-4.2
		c-0.4,1.5-1.3,3.7-2.1,5h-0.7c-0.3,0-0.9-0.1-1.2-0.7c-1.6-2.7-2.6-5.6-3.1-9.2h1.6c0.8,0,1.4,0.4,1.6,1.3c0.2,1.4,0.6,2.7,1.3,4.4
		c0.7-1.7,1.3-3.9,1.6-5.4h0.9c1,0,1.7,0.4,1.9,1.5c0.3,1.3,0.6,2.3,1.3,3.9c0.7-1.7,1.2-3.6,1.5-5.8h1.4c0.7,0,1.2,0.5,1.2,1.2
		c0,0.1,0,0.3,0,0.4C129.7,48.1,128.3,51.8,126.8,54.1 M135.6,46.1c1.5,0,2.3,0.9,2.3,3.1c0,1.8-0.8,2.8-2.1,2.8
		c-1.5,0-2.3-1-2.3-3.1C133.5,47.2,134.2,46.1,135.6,46.1 M135.5,54.2c3.2,0,5-2,5-5.3c0-3.2-2.3-5-4.7-5c-3.2,0-5,2.1-5,5.3
		C130.8,52.2,132.9,54.2,135.5,54.2 M145.8,46.1c0.8,0,1.1,0.4,1.1,1.1c0,0.6-0.4,1.1-1.2,1.1c-0.4,0-0.8,0-1.1,0v-2.2
		c0.2,0,0.4-0.1,0.5-0.1H145.8z M149,54c0.6,0,1.1-0.1,1.5-0.3v-0.1c-0.1-0.2-0.4-0.6-0.7-1.2l-0.8-1.6c-0.4-0.8-0.6-1.1-1.1-1.4
		c0.9-0.2,1.8-1.3,1.8-2.6c0-1.8-1.5-2.9-3.6-2.9H145c-0.8,0-2.3,0.2-3,0.4v8c0,0.9,0.6,1.6,1.7,1.6h1v-3.7c0.2,0,0.3,0,0.4,0
		c0.6,0.1,0.9,0.2,1.3,1.1l0.7,1.6C147.5,53.6,148,54,149,54 M156.1,54.1c1.6,0,2.2-0.6,2.2-1.6v-0.9h-0.1c-0.4,0.2-1.3,0.3-2.1,0.3
		h-0.4c-1.2,0-1.6-0.4-1.6-1.7v-4.4c0-1.1-0.5-1.7-1.6-1.7h-1.1v6.2c0,2.5,1.1,3.7,3.6,3.7H156.1 M162.8,46.1c1.3,0,2.4,1,2.4,2.9
		c0,1.7-0.8,2.8-2.4,2.8h-0.4c-0.4,0-0.6-0.3-0.6-0.6v-5.1c0.1,0,0.3-0.1,0.4-0.1H162.8 M163.2,54.1c2.8,0,4.8-2.2,4.8-5.2
		c0-3.4-2.6-4.9-5-4.9h-1c-0.8,0-2.1,0.2-2.8,0.5v7.3c0,1.7,1.3,2.4,3.1,2.4H163.2 M180.8,47.2v-1c0-1.4-1.1-2.3-3.1-2.3
		c-3.3,0-5.3,2.4-5.3,5.3c0,3.1,2.4,5.1,5.1,5.1c1.9,0,3.2-1,3.2-2.2v-1h-0.1c-0.5,0.5-1.7,0.9-2.7,0.9c-1.6,0-2.8-1-2.8-3
		c0-1.6,1.2-2.7,2.8-2.7C179,46.2,180.2,46.6,180.8,47.2L180.8,47.2z M186.4,54.2c3,0,4.6-2,4.6-4.4v-3.8c0-1.3-0.5-1.8-1.6-1.8
		h-1.2v5.7c0,1.5-0.5,2.1-1.6,2.1c-1.3,0-1.9-0.5-1.9-2.2V46c0-1.4-0.7-1.9-1.6-1.9h-1.2v5.7C182.1,52.5,183.9,54.2,186.4,54.2
		 M196.5,46.1c0.7,0,1.2,0.3,1.2,1.3c0,0.7-0.4,1.1-1.2,1.1c-0.4,0-0.7,0-1-0.1v-2.2c0.1,0,0.4-0.1,0.5-0.1H196.5 M196.7,50.7
		c2,0,3.7-1.4,3.7-3.5c0-2.1-1.6-3.2-3.6-3.2h-1.1c-0.9,0-2.2,0.2-2.9,0.4v7.9c0,1.2,0.8,1.7,1.5,1.7h1.2v-3.4
		C195.8,50.6,196.3,50.7,196.7,50.7 M118.7,39.4c0.5,0,0.6,0.1,0.6,0.5c0,0.3-0.2,0.4-0.6,0.4h-0.4c-0.1,0-0.2-0.1-0.2-0.2v-0.7
		H118.7 M118.7,37.7c0.4,0,0.6,0.1,0.6,0.4c0,0.3-0.2,0.4-0.6,0.4h-0.6v-0.8c0.1,0,0.2,0,0.3,0H118.7 M118.9,41.3
		c0.9,0,1.7-0.5,1.7-1.4c0-0.4-0.4-0.8-0.8-1c0.4-0.1,0.7-0.5,0.7-0.9c0-0.8-0.7-1.3-1.7-1.3h-0.6c-0.4,0-1.1,0.1-1.4,0.2v3.3
		c0,0.8,0.6,1.2,1.5,1.2H118.9 M127.3,37.9c0.2,0.4,0.4,0.9,0.5,1.4h-1C126.9,38.8,127.1,38.3,127.3,37.9 M129.6,41.3
		c-0.2-1.5-0.9-3.3-1.3-4.1c-0.2-0.2-0.4-0.5-0.9-0.5h-0.5c-0.8,0.8-1.6,3.3-1.6,4c0,0.3,0.2,0.6,0.6,0.6h0.5
		c0.1-0.3,0.1-0.7,0.2-1.1h1.6c0.1,0.2,0.1,0.4,0.1,0.5c0.1,0.4,0.3,0.5,0.8,0.5H129.6z M135.9,41.4c1.2,0,1.9-0.6,1.9-1.5
		c0-0.7-0.4-1.1-1.4-1.3c-0.8-0.2-0.9-0.3-0.9-0.5c0-0.3,0.2-0.4,0.8-0.4c0.5,0,1,0.1,1.3,0.4h0v-0.5c0-0.5-0.4-1-1.5-1
		c-1.1,0-1.9,0.7-1.9,1.5c0,0.7,0.4,1,1.4,1.2c0.7,0.1,0.9,0.2,0.9,0.5c0,0.3-0.2,0.4-0.8,0.4c-0.5,0-1.1-0.2-1.4-0.5h0v0.4
		C134.4,41,134.9,41.4,135.9,41.4 M143.8,37.5c0-0.4-0.3-0.7-0.8-0.7h-0.4v3.8c0,0.3,0.2,0.7,0.7,0.7h0.5v-2.1
		c0.5,0.7,0.9,1.3,1.4,1.9c0.2,0.2,0.5,0.3,0.8,0.3c0.4,0,0.6-0.2,0.8-0.7c-0.4-0.1-0.5-0.2-0.8-0.5c-0.4-0.4-0.7-0.8-1-1.3
		c0.5-0.6,1.2-1.5,1.8-2.1v0h-0.9c-0.4,0-0.5,0-0.8,0.3c-0.5,0.5-0.9,1-1.3,1.6V37.5 M154,41.4c0.8,0,1.1-0.2,1.1-0.7v-0.5
		c-0.4,0.1-0.7,0.1-1.1,0.1h-0.3c-0.6,0-0.8-0.2-0.8-0.7v-0.2h1.1c0.4,0,0.7-0.2,0.7-0.5v-0.5h-1.7c0-0.2,0-0.5,0-0.8h1.4
		c0.5,0,0.8-0.3,0.8-0.7v-0.3h-2.5c-0.4,0-0.8,0.2-0.9,0.7c-0.1,0.3-0.1,0.8-0.1,1.2v0.8c0,1.3,0.7,1.9,1.8,1.9H154 M163.2,37.8
		c0.4,0,0.7-0.3,0.7-0.6v-0.4h-3.2c-0.5,0-0.7,0.3-0.7,0.6v0.4h1.3v2.8c0,0.5,0.3,0.6,0.7,0.6h0.5v-3.5H163.2 M170.6,39.4
		c0.5,0,0.6,0.1,0.6,0.5c0,0.3-0.2,0.4-0.6,0.4h-0.4c-0.1,0-0.2-0.1-0.2-0.2v-0.7H170.6 M170.6,37.7c0.4,0,0.6,0.1,0.6,0.4
		c0,0.3-0.2,0.4-0.6,0.4H170v-0.8c0.1,0,0.2,0,0.3,0H170.6 M170.7,41.3c0.9,0,1.7-0.5,1.7-1.4c0-0.4-0.4-0.8-0.8-1
		c0.4-0.1,0.7-0.5,0.7-0.9c0-0.8-0.7-1.3-1.7-1.3h-0.6c-0.4,0-1.1,0.1-1.4,0.2v3.3c0,0.8,0.6,1.2,1.5,1.2H170.7 M179.2,37.9
		c0.2,0.4,0.4,0.9,0.5,1.4h-1C178.8,38.8,179,38.3,179.2,37.9 M181.4,41.3c-0.2-1.5-0.9-3.3-1.3-4.1c-0.2-0.2-0.4-0.5-0.9-0.5h-0.5
		c-0.8,0.8-1.6,3.3-1.6,4c0,0.3,0.2,0.6,0.6,0.6h0.5c0.1-0.3,0.1-0.7,0.2-1.1h1.6c0.1,0.2,0.1,0.4,0.1,0.5c0.1,0.4,0.3,0.5,0.8,0.5
		H181.4z M188.5,41.3c0.7,0,1-0.3,1-0.7v-0.4h0c-0.2,0.1-0.6,0.1-1,0.1h-0.2c-0.6,0-0.7-0.2-0.7-0.8v-2c0-0.5-0.2-0.8-0.7-0.8h-0.5
		v2.9c0,1.1,0.5,1.7,1.6,1.7H188.5 M197.2,41.3c0.7,0,1-0.3,1-0.7v-0.4h0c-0.2,0.1-0.6,0.1-1,0.1H197c-0.6,0-0.7-0.2-0.7-0.8v-2
		c0-0.5-0.2-0.8-0.7-0.8H195v2.9c0,1.1,0.5,1.7,1.6,1.7H197.2"/>
	<path id="FIBA_Wordmark_43_" class="st7" d="M149.4,32.8v-7.5c0-0.2,0-0.3,0.1-0.4c0.1-0.1,0.2-0.1,0.4-0.1h3.7v1.5H151V28h2.2v1.5
		H151v3.3H149.4z M154.3,32.8v-7.5c0-0.2,0-0.3,0.1-0.4c0.1-0.1,0.2-0.1,0.4-0.1h1v8H154.3z M156.8,32.8v-7.5c0-0.2,0-0.3,0.1-0.4
		c0.1-0.1,0.2-0.1,0.4-0.1h1.8c0.6,0,1.1,0.1,1.4,0.4c0.4,0.2,0.6,0.5,0.8,0.8c0.1,0.3,0.2,0.6,0.2,0.9c0,0.4-0.1,0.8-0.2,1
		c-0.1,0.3-0.3,0.5-0.4,0.6c-0.1,0.1-0.3,0.2-0.4,0.2c0.2,0.1,0.4,0.2,0.5,0.4c0.2,0.2,0.3,0.4,0.4,0.6c0.1,0.2,0.1,0.5,0.1,0.8
		c0,0.4-0.1,0.7-0.2,1c-0.1,0.3-0.3,0.5-0.5,0.7c-0.2,0.2-0.5,0.3-0.8,0.4c-0.3,0.1-0.6,0.1-1,0.1H156.8z M158.3,28.1h0.7
		c0.3,0,0.5-0.1,0.7-0.2c0.2-0.2,0.3-0.4,0.3-0.7c0-0.3-0.1-0.6-0.3-0.7c-0.2-0.2-0.4-0.2-0.7-0.2h-0.7V28.1z M158.3,31.4h0.7
		c0.3,0,0.5-0.1,0.7-0.2c0.2-0.2,0.3-0.4,0.3-0.8c0-0.3-0.1-0.6-0.3-0.7c-0.2-0.2-0.4-0.2-0.7-0.2h-0.7V31.4z M162.3,32.8v-6
		c0-0.2,0-0.4,0.1-0.7c0.1-0.2,0.2-0.5,0.4-0.7c0.2-0.2,0.5-0.4,0.8-0.6c0.3-0.1,0.7-0.2,1-0.2c0.3,0,0.6,0,0.9,0.1
		c0.2,0.1,0.5,0.2,0.6,0.3c0.2,0.1,0.3,0.3,0.4,0.4c0.1,0.2,0.2,0.3,0.3,0.5c0.1,0.2,0.1,0.3,0.1,0.5c0,0.1,0,0.3,0,0.4v6h-1.6v-2.7
		h-1.5v2.7H162.3z M163.9,28.6h1.5v-1.6c0-0.2,0-0.3-0.1-0.5c-0.1-0.1-0.1-0.2-0.3-0.3c-0.1-0.1-0.3-0.1-0.4-0.1
		c-0.2,0-0.4,0.1-0.5,0.2c-0.1,0.1-0.2,0.3-0.2,0.4c0,0.1,0,0.2,0,0.3V28.6z"/>
	<path id="FIBA_Hoop_46_" class="st7" d="M173.8,30.9c-0.3-1-0.7-2.1-1.1-3c-0.3-0.7-0.6-1.4-1-2c-0.9-1.6-2.1-3.1-3.4-4.3
		c-1.4-1.2-2.9-2.2-4.7-2.9c-1.7-0.7-3.6-1-5.4-1c-1.9,0-3.7,0.4-5.4,1c-1.7,0.7-3.3,1.7-4.7,2.9c-1.3,1.2-2.5,2.6-3.4,4.3
		c-0.4,0.7-0.7,1.4-1,2.2c-0.4,0.9-0.7,1.9-1,2.8c0,0,0,0,0,0c0,0,0,0.1,0,0.1c0,0,0.1,0.1,0.1,0.1c0,0,0,0,0.1,0c0,0,0.1,0,0.1,0
		c0,0,0,0,0.1-0.1l0,0c0,0,0,0,0,0l0,0c0.2-0.5,0.4-1,0.7-1.5c1.3-2.4,3.2-4.4,5.5-5.9c1.4-0.9,2.9-1.6,4.4-2
		c1.5-0.5,3.1-0.7,4.7-0.7h0.2c1.6,0,3.1,0.2,4.7,0.7c1.5,0.4,3,1.1,4.4,2c2.3,1.4,4.1,3.5,5.5,5.9c0.3,0.6,0.5,1.1,0.6,1.5
		c0,0,0,0,0,0c0,0,0,0,0,0c0,0,0,0,0,0l0,0c0,0,0,0,0,0c0,0,0.1,0,0.1,0c0,0,0.1,0,0.1-0.1C173.9,31,173.9,31,173.8,30.9
		C173.8,30.9,173.8,30.9,173.8,30.9 M171.3,26.1c-1-1.3-2.1-2.4-3.4-3.3c-1.4-1-2.9-1.8-4.6-2.3c-1.6-0.5-3.3-0.8-5.1-0.8
		c-1.8,0-3.5,0.3-5.1,0.8c-1.7,0.6-3.3,1.3-4.6,2.3c-1.3,0.9-2.4,2-3.4,3.3c1-1.5,2.1-2.8,3.4-3.9c2.7-2.3,6.2-3.6,9.6-3.6h0.1
		c1.7,0,3.5,0.3,5.1,0.9c1.6,0.6,3.1,1.5,4.5,2.7C169.2,23.2,170.3,24.6,171.3,26.1"/>
</g>
</svg>
