<svg xmlns="http://www.w3.org/2000/svg" xmlns:xlink="http://www.w3.org/1999/xlink" viewBox="0 0 200.68 80"><defs><style>.cls-1{isolation:isolate;}.cls-2{fill:none;}.cls-3{fill:url(#radial-gradient);}.cls-26,.cls-4,.cls-49,.cls-50{mix-blend-mode:hard-light;}.cls-4{fill:url(#radial-gradient-2);}.cls-100,.cls-24,.cls-5,.cls-81,.cls-84,.cls-87{mix-blend-mode:screen;}.cls-5{fill:url(#radial-gradient-3);}.cls-6{fill:url(#linear-gradient);}.cls-7{fill:url(#linear-gradient-2);}.cls-8{fill:url(#linear-gradient-3);}.cls-9{fill:url(#linear-gradient-4);}.cls-10{fill:url(#linear-gradient-5);}.cls-11{fill:url(#linear-gradient-6);}.cls-12{fill:url(#linear-gradient-7);}.cls-13{fill:url(#linear-gradient-8);}.cls-14{fill:#fde90b;}.cls-15,.cls-21,.cls-27,.cls-36,.cls-43,.cls-44,.cls-46,.cls-47,.cls-53,.cls-56,.cls-64,.cls-65,.cls-75,.cls-85,.cls-86,.cls-93,.cls-94,.cls-95,.cls-96,.cls-98{mix-blend-mode:multiply;}.cls-15{fill:url(#linear-gradient-9);}.cls-16{fill:url(#radial-gradient-4);}.cls-17{fill:url(#radial-gradient-5);}.cls-18{fill:url(#radial-gradient-6);}.cls-19{fill:url(#radial-gradient-7);}.cls-20{fill:url(#radial-gradient-8);}.cls-21{fill:url(#radial-gradient-9);}.cls-22{fill:#fff;}.cls-23{fill:url(#radial-gradient-10);}.cls-24{fill:url(#radial-gradient-11);}.cls-25,.cls-79,.cls-80,.cls-83,.cls-92{mix-blend-mode:overlay;}.cls-25{fill:url(#radial-gradient-12);}.cls-26{fill:url(#radial-gradient-13);}.cls-27{opacity:0.8;fill:url(#radial-gradient-14);}.cls-28{fill:url(#linear-gradient-10);}.cls-29{fill:url(#linear-gradient-11);}.cls-30{fill:url(#linear-gradient-12);}.cls-31{fill:url(#linear-gradient-13);}.cls-32{fill:url(#linear-gradient-14);}.cls-33{fill:url(#linear-gradient-15);}.cls-34{fill:url(#linear-gradient-16);}.cls-35{fill:url(#linear-gradient-17);}.cls-36{fill:url(#linear-gradient-18);}.cls-37{fill:url(#radial-gradient-15);}.cls-38{fill:url(#radial-gradient-16);}.cls-39{fill:url(#radial-gradient-17);}.cls-40{fill:url(#radial-gradient-18);}.cls-41{fill:url(#radial-gradient-19);}.cls-42{fill:#ee752f;}.cls-43{fill:url(#linear-gradient-19);}.cls-44{fill:url(#linear-gradient-20);}.cls-45{fill:#f69f00;}.cls-46{fill:url(#linear-gradient-21);}.cls-47{fill:url(#linear-gradient-22);}.cls-48{fill:url(#linear-gradient-23);}.cls-49{fill:url(#linear-gradient-24);}.cls-50{fill:url(#linear-gradient-25);}.cls-51{fill:url(#linear-gradient-26);}.cls-52{fill:url(#linear-gradient-27);}.cls-53{fill:url(#linear-gradient-28);}.cls-54{fill:url(#linear-gradient-29);}.cls-55{fill:#fbbd00;}.cls-56{fill:url(#linear-gradient-30);}.cls-57{fill:#fff15c;}.cls-58{fill:url(#linear-gradient-31);}.cls-59{fill:url(#linear-gradient-32);}.cls-60{fill:url(#linear-gradient-33);}.cls-61{fill:url(#linear-gradient-34);}.cls-62{fill:url(#linear-gradient-35);}.cls-63{fill:url(#linear-gradient-36);}.cls-64{fill:url(#linear-gradient-37);}.cls-65{fill:url(#linear-gradient-38);}.cls-66{fill:url(#radial-gradient-20);}.cls-67{fill:url(#linear-gradient-39);}.cls-68{fill:url(#linear-gradient-40);}.cls-69{fill:url(#linear-gradient-41);}.cls-70{fill:#1a407a;}.cls-71{fill:url(#linear-gradient-42);}.cls-72{fill:url(#radial-gradient-21);}.cls-73{fill:url(#radial-gradient-22);}.cls-74{fill:url(#linear-gradient-43);}.cls-75{fill:url(#linear-gradient-45);}.cls-76{fill:url(#radial-gradient-23);}.cls-77{fill:url(#radial-gradient-24);}.cls-78,.cls-80{fill:url(#radial-gradient-25);}.cls-79{fill:url(#radial-gradient-26);}.cls-81{fill:url(#radial-gradient-28);}.cls-82{fill:url(#linear-gradient-46);}.cls-83{fill:url(#linear-gradient-47);}.cls-84{fill:url(#radial-gradient-29);}.cls-85{fill:url(#linear-gradient-49);}.cls-86{fill:url(#linear-gradient-50);}.cls-87{opacity:0.43;fill:url(#linear-gradient-51);}.cls-88{fill:url(#linear-gradient-52);}.cls-89{fill:url(#linear-gradient-53);}.cls-90{fill:url(#linear-gradient-54);}.cls-91{fill:url(#linear-gradient-55);}.cls-92{opacity:0.52;fill:url(#radial-gradient-30);}.cls-93{fill:url(#linear-gradient-56);}.cls-94{opacity:0.54;fill:url(#radial-gradient-31);}.cls-95{fill:url(#linear-gradient-57);}.cls-96{fill:url(#linear-gradient-58);}.cls-97{fill:#d4310f;}.cls-98{fill:url(#linear-gradient-59);}.cls-99{fill:#fddd7a;}.cls-100{fill:url(#radial-gradient-32);}</style><radialGradient id="radial-gradient" cx="379.66" cy="-1968.39" r="12.67" gradientTransform="translate(428.83 2050.87) rotate(-15.41)" gradientUnits="userSpaceOnUse"><stop offset="0" stop-color="#fff15c"/><stop offset="0.81" stop-color="#fbbd00"/><stop offset="0.88" stop-color="#fab700"/><stop offset="0.97" stop-color="#f7a700"/><stop offset="1" stop-color="#f69f00"/></radialGradient><radialGradient id="radial-gradient-2" cx="271.1" cy="54.23" r="7.09" gradientTransform="translate(468.07 -149) rotate(117.41) scale(1 1.5)" gradientUnits="userSpaceOnUse"><stop offset="0" stop-color="#fff"/><stop offset="0.08" stop-color="#daf1e6" stop-opacity="0.79"/><stop offset="0.16" stop-color="#bae5d1" stop-opacity="0.61"/><stop offset="0.24" stop-color="#9ddbbd" stop-opacity="0.44"/><stop offset="0.33" stop-color="#85d2ad" stop-opacity="0.31"/><stop offset="0.43" stop-color="#71cba0" stop-opacity="0.19"/><stop offset="0.53" stop-color="#62c596" stop-opacity="0.11"/><stop offset="0.64" stop-color="#57c18f" stop-opacity="0.05"/><stop offset="0.76" stop-color="#51bf8a" stop-opacity="0.01"/><stop offset="0.94" stop-color="#4fbe89" stop-opacity="0"/></radialGradient><radialGradient id="radial-gradient-3" cx="309.31" cy="32.78" r="11.17" gradientTransform="translate(-41.4 30.42) rotate(-0.89)" gradientUnits="userSpaceOnUse"><stop offset="0" stop-color="#4fbe89"/><stop offset="0.07" stop-color="#4fbe89" stop-opacity="0.81"/><stop offset="0.16" stop-color="#4fbe89" stop-opacity="0.6"/><stop offset="0.26" stop-color="#4fbe89" stop-opacity="0.41"/><stop offset="0.37" stop-color="#4fbe89" stop-opacity="0.26"/><stop offset="0.48" stop-color="#4fbe89" stop-opacity="0.15"/><stop offset="0.6" stop-color="#4fbe89" stop-opacity="0.06"/><stop offset="0.74" stop-color="#4fbe89" stop-opacity="0.02"/><stop offset="0.94" stop-color="#4fbe89" stop-opacity="0"/></radialGradient><linearGradient id="linear-gradient" x1="175.16" y1="51.93" x2="181.38" y2="51.93" gradientUnits="userSpaceOnUse"><stop offset="0" stop-color="#ee752f"/><stop offset="1" stop-color="#fff15c"/></linearGradient><linearGradient id="linear-gradient-2" x1="174.53" y1="67.86" x2="174.82" y2="71.13" gradientUnits="userSpaceOnUse"><stop offset="0" stop-color="#fdc62f"/><stop offset="1" stop-color="#fff15c"/></linearGradient><linearGradient id="linear-gradient-3" x1="172.68" y1="68.87" x2="183.97" y2="68.87" xlink:href="#linear-gradient"/><linearGradient id="linear-gradient-4" x1="178.45" y1="53.69" x2="183.78" y2="55.71" xlink:href="#linear-gradient-2"/><linearGradient id="linear-gradient-5" x1="274.85" y1="56.53" x2="287.6" y2="56.53" xlink:href="#linear-gradient"/><linearGradient id="linear-gradient-6" x1="180.61" y1="58.64" x2="182.7" y2="62.01" xlink:href="#linear-gradient-2"/><linearGradient id="linear-gradient-7" x1="178.41" y1="63.81" x2="179.51" y2="67.13" xlink:href="#linear-gradient-2"/><linearGradient id="linear-gradient-8" x1="174.9" y1="63.67" x2="188.99" y2="63.67" xlink:href="#linear-gradient"/><linearGradient id="linear-gradient-9" x1="270.06" y1="60.8" x2="288.35" y2="60.8" gradientUnits="userSpaceOnUse"><stop offset="0" stop-color="#fff"/><stop offset="1" stop-color="#fde90b"/></linearGradient><radialGradient id="radial-gradient-4" cx="271.63" cy="74.05" r="26.12" gradientUnits="userSpaceOnUse"><stop offset="0" stop-color="#fff"/><stop offset="0.08" stop-color="#fff" stop-opacity="0.79"/><stop offset="0.19" stop-color="#fff" stop-opacity="0.52"/><stop offset="0.29" stop-color="#fff" stop-opacity="0.29"/><stop offset="0.37" stop-color="#fff" stop-opacity="0.13"/><stop offset="0.44" stop-color="#fff" stop-opacity="0.04"/><stop offset="0.48" stop-color="#fff" stop-opacity="0"/></radialGradient><radialGradient id="radial-gradient-5" cx="-501.43" cy="-1817.48" r="8.87" gradientTransform="translate(340.58 1931.18) rotate(10.76)" gradientUnits="userSpaceOnUse"><stop offset="0" stop-color="#fff15c"/><stop offset="1" stop-color="#f69f00"/></radialGradient><radialGradient id="radial-gradient-6" cx="-1345.56" cy="-1078.47" r="10.2" gradientTransform="translate(423.18 1770) rotate(43.43)" xlink:href="#radial-gradient-5"/><radialGradient id="radial-gradient-7" cx="-1604.88" cy="-481.05" r="6.35" gradientTransform="translate(518.76 1709.7) rotate(61.77)" xlink:href="#radial-gradient-5"/><radialGradient id="radial-gradient-8" cx="-1676.23" cy="-52.4" r="6.68" gradientTransform="translate(594.28 1696.36) rotate(73.86)" xlink:href="#radial-gradient-5"/><radialGradient id="radial-gradient-9" cx="264.65" cy="65.3" r="15.86" gradientUnits="userSpaceOnUse"><stop offset="0" stop-color="#ee752f" stop-opacity="0.2"/><stop offset="0.15" stop-color="#ef7a29" stop-opacity="0.29"/><stop offset="0.47" stop-color="#f1871b" stop-opacity="0.54"/><stop offset="0.92" stop-color="#f59b04" stop-opacity="0.93"/><stop offset="1" stop-color="#f69f00"/></radialGradient><radialGradient id="radial-gradient-10" cx="12556.85" cy="5550.01" r="12.68" gradientTransform="translate(13973.49 -379.05) rotate(154.29)" xlink:href="#radial-gradient"/><radialGradient id="radial-gradient-11" cx="12552.53" cy="5555.19" r="11.15" gradientTransform="translate(13973.49 -379.05) rotate(154.29)" xlink:href="#radial-gradient-3"/><radialGradient id="radial-gradient-12" cx="247.28" cy="60.17" r="12.15" gradientTransform="matrix(1, 0, 0, 1, 0, 0)" xlink:href="#radial-gradient-3"/><radialGradient id="radial-gradient-13" cx="248.63" cy="60.29" r="17.94" gradientTransform="translate(443.33 -118.81) rotate(117.41) scale(1 1.5)" gradientUnits="userSpaceOnUse"><stop offset="0" stop-color="#fff"/><stop offset="0.08" stop-color="#daf1e6" stop-opacity="0.79"/><stop offset="0.16" stop-color="#bae5d1" stop-opacity="0.61"/><stop offset="0.24" stop-color="#9ddbbd" stop-opacity="0.44"/><stop offset="0.33" stop-color="#85d2ad" stop-opacity="0.31"/><stop offset="0.43" stop-color="#71cba0" stop-opacity="0.19"/><stop offset="0.53" stop-color="#62c596" stop-opacity="0.11"/><stop offset="0.64" stop-color="#57c18f" stop-opacity="0.05"/><stop offset="0.76" stop-color="#51bf8a" stop-opacity="0.01"/><stop offset="0.94" stop-color="#4fbe89" stop-opacity="0"/></radialGradient><radialGradient id="radial-gradient-14" cx="254.81" cy="65.82" r="9.96" gradientUnits="userSpaceOnUse"><stop offset="0" stop-color="#ee752f" stop-opacity="0.4"/><stop offset="0.18" stop-color="#ef7c28" stop-opacity="0.49"/><stop offset="0.57" stop-color="#f28c15" stop-opacity="0.73"/><stop offset="0.96" stop-color="#f69f00"/></radialGradient><linearGradient id="linear-gradient-10" x1="246.32" y1="48.28" x2="246.56" y2="51.09" xlink:href="#linear-gradient-2"/><linearGradient id="linear-gradient-11" x1="12553.11" y1="5567.35" x2="12563.34" y2="5567.35" gradientTransform="translate(13874.13 -378.86) rotate(154.29)" xlink:href="#linear-gradient"/><linearGradient id="linear-gradient-12" x1="12353.58" y1="5981.11" x2="12362.36" y2="5981.11" gradientTransform="matrix(-0.89, 0.47, -0.47, -0.89, 13868.86, -389.05)" xlink:href="#linear-gradient"/><linearGradient id="linear-gradient-13" x1="153.75" y1="70.98" x2="200.39" y2="88.66" xlink:href="#linear-gradient-2"/><linearGradient id="linear-gradient-14" x1="12558.25" y1="5556.85" x2="12571.74" y2="5556.85" gradientTransform="translate(13973.49 -379.05) rotate(154.29)" xlink:href="#linear-gradient"/><linearGradient id="linear-gradient-15" x1="146.95" y1="69.85" x2="163.74" y2="96.98" xlink:href="#linear-gradient-2"/><linearGradient id="linear-gradient-16" x1="12558.54" y1="5561.48" x2="12559.89" y2="5565.57" gradientTransform="translate(13874.13 -378.86) rotate(154.29)" xlink:href="#linear-gradient-2"/><linearGradient id="linear-gradient-17" x1="130.8" y1="58.36" x2="202.76" y2="58.36" gradientUnits="userSpaceOnUse"><stop offset="0" stop-color="#ee752f"/><stop offset="1" stop-color="#fdc62f"/></linearGradient><linearGradient id="linear-gradient-18" x1="12549.79" y1="5559.85" x2="12571.74" y2="5559.85" gradientTransform="translate(13973.49 -379.05) rotate(154.29)" xlink:href="#linear-gradient-9"/><radialGradient id="radial-gradient-15" cx="12553.42" cy="5568.5" r="31.63" gradientTransform="translate(13973.49 -379.05) rotate(154.29)" xlink:href="#radial-gradient-4"/><radialGradient id="radial-gradient-16" cx="13743.57" cy="-442.6" r="8.87" gradientTransform="translate(13884.6 -258.92) rotate(-179.53)" xlink:href="#radial-gradient-5"/><radialGradient id="radial-gradient-17" cx="11388.15" cy="-7610.18" r="10.2" gradientTransform="translate(13832.14 -85.57) rotate(-146.86)" xlink:href="#radial-gradient-5"/><radialGradient id="radial-gradient-18" cx="8427.53" cy="-10686.98" r="6.35" gradientTransform="translate(13748.87 -9.17) rotate(-128.53)" xlink:href="#radial-gradient-5"/><radialGradient id="radial-gradient-19" cx="5996.34" cy="-12133.05" r="6.68" gradientTransform="translate(13676.95 17.46) rotate(-116.44)" xlink:href="#radial-gradient-5"/><linearGradient id="linear-gradient-19" x1="227.47" y1="50.13" x2="255.96" y2="50.13" gradientUnits="userSpaceOnUse"><stop offset="0.35" stop-color="#fff"/><stop offset="1" stop-color="#ee752f"/></linearGradient><linearGradient id="linear-gradient-20" x1="65.81" y1="885.53" x2="69.63" y2="891.03" gradientTransform="matrix(1.02, 0.01, -0.01, 1.11, 190.67, -955.59)" gradientUnits="userSpaceOnUse"><stop offset="0" stop-color="#fff"/><stop offset="1" stop-color="#ee752f"/></linearGradient><linearGradient id="linear-gradient-21" x1="242.36" y1="33.53" x2="247.58" y2="38.96" gradientTransform="matrix(1, 0, 0, 1, 0, 0)" xlink:href="#linear-gradient-20"/><linearGradient id="linear-gradient-22" x1="61.66" y1="895.77" x2="67.56" y2="900.19" xlink:href="#linear-gradient-20"/><linearGradient id="linear-gradient-23" x1="237.8" y1="31.52" x2="246.53" y2="52.49" gradientUnits="userSpaceOnUse"><stop offset="0.01" stop-color="#06afdd"/><stop offset="0.09" stop-color="#05add3"/><stop offset="0.22" stop-color="#04a7ba"/><stop offset="0.4" stop-color="#019c90"/><stop offset="0.44" stop-color="#009a86"/><stop offset="0.57" stop-color="#00907e"/><stop offset="0.78" stop-color="#007768"/><stop offset="1" stop-color="#00574d"/></linearGradient><linearGradient id="linear-gradient-24" x1="220.23" y1="28.34" x2="255.3" y2="40.92" gradientUnits="userSpaceOnUse"><stop offset="0.3" stop-color="#06afdd"/><stop offset="0.37" stop-color="#06aed9" stop-opacity="0.96"/><stop offset="0.48" stop-color="#05accf" stop-opacity="0.84"/><stop offset="0.62" stop-color="#04a8bf" stop-opacity="0.65"/><stop offset="0.78" stop-color="#02a2a8" stop-opacity="0.39"/><stop offset="0.97" stop-color="#009b8b" stop-opacity="0.05"/><stop offset="1" stop-color="#009a86" stop-opacity="0"/></linearGradient><linearGradient id="linear-gradient-25" x1="230.58" y1="32.05" x2="259.77" y2="42.52" gradientUnits="userSpaceOnUse"><stop offset="0.3" stop-color="#06afdd"/><stop offset="0.37" stop-color="#06aed9" stop-opacity="0.96"/><stop offset="0.48" stop-color="#05accf" stop-opacity="0.84"/><stop offset="0.62" stop-color="#04a8bf" stop-opacity="0.65"/><stop offset="0.78" stop-color="#02a2a8" stop-opacity="0.39"/><stop offset="0.97" stop-color="#009b8b" stop-opacity="0.05"/><stop offset="1" stop-color="#009a86" stop-opacity="0"/></linearGradient><linearGradient id="linear-gradient-26" x1="237.86" y1="39.02" x2="241.21" y2="47.06" gradientUnits="userSpaceOnUse"><stop offset="0.3" stop-color="#009a86"/><stop offset="0.46" stop-color="#00907e"/><stop offset="0.73" stop-color="#007768"/><stop offset="1" stop-color="#00574d"/></linearGradient><linearGradient id="linear-gradient-27" x1="239.24" y1="21" x2="244.07" y2="32.59" xlink:href="#linear-gradient-26"/><linearGradient id="linear-gradient-28" x1="69.05" y1="900.12" x2="76.03" y2="901.91" gradientTransform="matrix(1.02, 0.01, -0.01, 1.11, 190.67, -955.59)" gradientUnits="userSpaceOnUse"><stop offset="0.3" stop-color="#009a86" stop-opacity="0"/><stop offset="0.43" stop-color="#009380" stop-opacity="0.11"/><stop offset="0.65" stop-color="#007f6f" stop-opacity="0.4"/><stop offset="0.94" stop-color="#005f54" stop-opacity="0.88"/><stop offset="1" stop-color="#00574d"/></linearGradient><linearGradient id="linear-gradient-29" x1="240.51" y1="34.28" x2="243.11" y2="40.52" xlink:href="#linear-gradient-26"/><linearGradient id="linear-gradient-30" x1="-920.69" y1="1703.88" x2="-919" y2="1703.88" gradientTransform="matrix(0.88, -0.48, -0.48, -0.88, 1913.94, 1082.51)" gradientUnits="userSpaceOnUse"><stop offset="0.3" stop-color="#fdc62f"/><stop offset="0.36" stop-color="#fdc62f" stop-opacity="0.96"/><stop offset="0.46" stop-color="#fdc62f" stop-opacity="0.86"/><stop offset="0.59" stop-color="#fdc62f" stop-opacity="0.69"/><stop offset="0.74" stop-color="#fdc62f" stop-opacity="0.46"/><stop offset="0.91" stop-color="#fdc62f" stop-opacity="0.17"/><stop offset="1" stop-color="#fdc62f" stop-opacity="0"/></linearGradient><linearGradient id="linear-gradient-31" x1="2095.86" y1="1088.31" x2="2102.63" y2="1093.62" gradientTransform="matrix(-0.52, -0.85, -0.85, 0.52, 2314.4, 1253.77)" gradientUnits="userSpaceOnUse"><stop offset="0" stop-color="#282159"/><stop offset="1" stop-color="#005fa6"/></linearGradient><linearGradient id="linear-gradient-32" x1="2447.03" y1="-263.1" x2="2461.47" y2="-263.1" gradientTransform="matrix(-0.94, -0.35, -0.35, 0.94, 2494.07, 1131.84)" xlink:href="#linear-gradient-31"/><linearGradient id="linear-gradient-33" x1="265.96" y1="52.46" x2="295.12" y2="52.46" gradientTransform="matrix(1, 0, 0, 1, 0, 0)" xlink:href="#linear-gradient-31"/><linearGradient id="linear-gradient-34" x1="272.2" y1="35.31" x2="280.5" y2="35.31" gradientTransform="matrix(1, 0, 0, 1, 0, 0)" xlink:href="#linear-gradient-31"/><linearGradient id="linear-gradient-35" x1="334.28" y1="79.91" x2="343.22" y2="101.39" gradientTransform="matrix(-1.01, 0.03, 0.03, 1.11, 622.27, -66.99)" gradientUnits="userSpaceOnUse"><stop offset="0" stop-color="#00a13b"/><stop offset="0.13" stop-color="#0fa537"/><stop offset="0.38" stop-color="#37ae2c"/><stop offset="0.72" stop-color="#77bd1a"/><stop offset="1" stop-color="#afca0b"/></linearGradient><linearGradient id="linear-gradient-36" x1="2068.35" y1="984.51" x2="2072.04" y2="993.36" gradientTransform="matrix(-0.56, -0.85, -0.93, 0.61, 2355.77, 1193.08)" gradientUnits="userSpaceOnUse"><stop offset="0" stop-color="#00a155"/><stop offset="0.13" stop-color="#0fa54f"/><stop offset="0.38" stop-color="#37ae3e"/><stop offset="0.72" stop-color="#77bd23"/><stop offset="1" stop-color="#afca0b"/></linearGradient><linearGradient id="linear-gradient-37" x1="265.01" y1="44.95" x2="273.49" y2="45.2" gradientUnits="userSpaceOnUse"><stop offset="0" stop-color="#00574d"/><stop offset="0.17" stop-color="#006f50" stop-opacity="0.67"/><stop offset="0.36" stop-color="#008552" stop-opacity="0.38"/><stop offset="0.56" stop-color="#009554" stop-opacity="0.17"/><stop offset="0.77" stop-color="#009e55" stop-opacity="0.04"/><stop offset="1" stop-color="#00a155" stop-opacity="0"/></linearGradient><linearGradient id="linear-gradient-38" x1="213.81" y1="-66.45" x2="217.18" y2="-66.45" gradientTransform="matrix(-0.05, -1, 1, -0.05, 355.36, 251.81)" xlink:href="#linear-gradient-30"/><radialGradient id="radial-gradient-20" cx="279.42" cy="36.8" r="1.55" gradientUnits="userSpaceOnUse"><stop offset="0" stop-color="#fddd7a"/><stop offset="0.7" stop-color="#fff15c"/></radialGradient><linearGradient id="linear-gradient-39" x1="272.95" y1="53.97" x2="300.47" y2="37.85" gradientUnits="userSpaceOnUse"><stop offset="0" stop-color="#00a13b" stop-opacity="0.1"/><stop offset="0.3" stop-color="#75c64a" stop-opacity="0.24"/><stop offset="0.6" stop-color="#d9e557" stop-opacity="0.36"/><stop offset="0.75" stop-color="#fff15c" stop-opacity="0.4"/></linearGradient><linearGradient id="linear-gradient-40" x1="262.68" y1="36.38" x2="290.16" y2="20.28" xlink:href="#linear-gradient-39"/><linearGradient id="linear-gradient-41" x1="2102.69" y1="1089.97" x2="2104.13" y2="1093.42" gradientTransform="matrix(-0.52, -0.85, -0.85, 0.52, 2314.4, 1253.77)" gradientUnits="userSpaceOnUse"><stop offset="0.02" stop-color="#00825d" stop-opacity="0.4"/><stop offset="0.46" stop-color="#00825d" stop-opacity="0.28"/><stop offset="1" stop-color="#00825d" stop-opacity="0.1"/></linearGradient><linearGradient id="linear-gradient-42" x1="274.81" y1="41.42" x2="297.94" y2="42.1" gradientTransform="translate(0.35 1.18) rotate(-0.23)" xlink:href="#linear-gradient-41"/><radialGradient id="radial-gradient-21" cx="256.35" cy="41.24" fy="53.32090434393887" r="12.11" gradientTransform="translate(0 -11.09) scale(1 1.27)" gradientUnits="userSpaceOnUse"><stop offset="0" stop-color="#282159"/><stop offset="1" stop-color="#005fa6"/></radialGradient><radialGradient id="radial-gradient-22" cx="252.91" cy="43.62" fy="74.327979971116" r="30.78" gradientTransform="translate(0 -11.73) scale(1 1.27)" gradientUnits="userSpaceOnUse"><stop offset="0.12" stop-color="#282159"/><stop offset="0.87" stop-color="#005fa6"/></radialGradient><linearGradient id="linear-gradient-43" x1="261.17" y1="55.32" x2="261.17" y2="26.22" gradientUnits="userSpaceOnUse"><stop offset="0" stop-color="#06afdd"/><stop offset="1" stop-color="#08c"/></linearGradient><linearGradient id="linear-gradient-45" x1="261.03" y1="33.3" x2="261.23" y2="9.02" gradientUnits="userSpaceOnUse"><stop offset="0.12" stop-color="#08c" stop-opacity="0"/><stop offset="0.24" stop-color="#08c" stop-opacity="0.28"/><stop offset="0.39" stop-color="#08c" stop-opacity="0.58"/><stop offset="0.52" stop-color="#08c" stop-opacity="0.81"/><stop offset="0.61" stop-color="#08c" stop-opacity="0.95"/><stop offset="0.67" stop-color="#08c"/></linearGradient><radialGradient id="radial-gradient-23" cx="252.91" cy="43.64" fy="74.39153496388286" r="30.82" gradientTransform="translate(0 -11.74) scale(1 1.27)" gradientUnits="userSpaceOnUse"><stop offset="0" stop-color="#282159"/><stop offset="0.22" stop-color="#282159"/><stop offset="0.92" stop-color="#005fa6"/></radialGradient><radialGradient id="radial-gradient-24" cx="260.53" cy="29.88" r="2.85" gradientTransform="translate(0 -67.07) scale(1 3.24)" gradientUnits="userSpaceOnUse"><stop offset="0" stop-color="#1a407a" stop-opacity="0"/><stop offset="1" stop-color="#282159"/></radialGradient><radialGradient id="radial-gradient-25" cx="268" cy="38.84" r="19.86" gradientUnits="userSpaceOnUse"><stop offset="0" stop-color="#06afdd"/><stop offset="1" stop-color="#06afdd" stop-opacity="0"/></radialGradient><radialGradient id="radial-gradient-26" cx="268" cy="38.84" r="19.86" gradientUnits="userSpaceOnUse"><stop offset="0" stop-color="#1fb7e0"/><stop offset="1" stop-color="#1fb7e0" stop-opacity="0"/></radialGradient><radialGradient id="radial-gradient-28" cx="267.04" cy="18.89" r="19.86" gradientUnits="userSpaceOnUse"><stop offset="0.06" stop-color="#4fbe89"/><stop offset="0.13" stop-color="#4fbe89" stop-opacity="0.81"/><stop offset="0.22" stop-color="#4fbe89" stop-opacity="0.6"/><stop offset="0.32" stop-color="#4fbe89" stop-opacity="0.41"/><stop offset="0.42" stop-color="#4fbe89" stop-opacity="0.26"/><stop offset="0.53" stop-color="#4fbe89" stop-opacity="0.15"/><stop offset="0.65" stop-color="#4fbe89" stop-opacity="0.06"/><stop offset="0.79" stop-color="#4fbe89" stop-opacity="0.02"/><stop offset="0.99" stop-color="#4fbe89" stop-opacity="0"/></radialGradient><linearGradient id="linear-gradient-46" x1="249.03" y1="40.68" x2="260.37" y2="40.68" gradientUnits="userSpaceOnUse"><stop offset="0" stop-color="#06afdd" stop-opacity="0"/><stop offset="1" stop-color="#06afdd"/></linearGradient><linearGradient id="linear-gradient-47" x1="249.03" y1="40.68" x2="260.37" y2="40.68" xlink:href="#radial-gradient-25"/><radialGradient id="radial-gradient-29" cx="251.69" cy="24.89" r="18.63" gradientUnits="userSpaceOnUse"><stop offset="0.12" stop-color="#4fbe89"/><stop offset="0.16" stop-color="#4fbe89" stop-opacity="0.81"/><stop offset="0.21" stop-color="#4fbe89" stop-opacity="0.6"/><stop offset="0.26" stop-color="#4fbe89" stop-opacity="0.41"/><stop offset="0.32" stop-color="#4fbe89" stop-opacity="0.26"/><stop offset="0.38" stop-color="#4fbe89" stop-opacity="0.15"/><stop offset="0.45" stop-color="#4fbe89" stop-opacity="0.06"/><stop offset="0.52" stop-color="#4fbe89" stop-opacity="0.02"/><stop offset="0.63" stop-color="#4fbe89" stop-opacity="0"/></radialGradient><linearGradient id="linear-gradient-49" x1="260.48" y1="20.58" x2="260.48" y2="32.98" xlink:href="#linear-gradient-46"/><linearGradient id="linear-gradient-50" x1="260.48" y1="20.58" x2="260.48" y2="32.98" gradientUnits="userSpaceOnUse"><stop offset="0" stop-color="#06afdd" stop-opacity="0"/><stop offset="1" stop-color="#08c"/></linearGradient><linearGradient id="linear-gradient-51" x1="274.2" y1="48.9" x2="259.1" y2="30.93" gradientUnits="userSpaceOnUse"><stop offset="0.01" stop-color="#06afdd" stop-opacity="0"/><stop offset="0.15" stop-color="#57c9e8" stop-opacity="0.33"/><stop offset="0.32" stop-color="#b1e6f4" stop-opacity="0.69"/><stop offset="0.44" stop-color="#e9f8fc" stop-opacity="0.91"/><stop offset="0.49" stop-color="#fff"/><stop offset="0.53" stop-color="#f9fdfe" stop-opacity="0.98"/><stop offset="0.59" stop-color="#e7f7fc" stop-opacity="0.91"/><stop offset="0.65" stop-color="#cbeef8" stop-opacity="0.79"/><stop offset="0.72" stop-color="#a3e1f2" stop-opacity="0.63"/><stop offset="0.79" stop-color="#70d1eb" stop-opacity="0.43"/><stop offset="0.87" stop-color="#33bde3" stop-opacity="0.18"/><stop offset="0.92" stop-color="#06afdd" stop-opacity="0"/></linearGradient><linearGradient id="linear-gradient-52" x1="267.35" y1="62.69" x2="253.19" y2="78.58" gradientUnits="userSpaceOnUse"><stop offset="0" stop-color="#1fb7e0"/><stop offset="1" stop-color="#08c"/></linearGradient><linearGradient id="linear-gradient-53" x1="268.59" y1="68.36" x2="255.88" y2="82.63" xlink:href="#linear-gradient-52"/><linearGradient id="linear-gradient-54" x1="260.43" y1="68.15" x2="260.43" y2="80" gradientUnits="userSpaceOnUse"><stop offset="0" stop-color="#08c"/><stop offset="1" stop-color="#1fb7e0"/></linearGradient><linearGradient id="linear-gradient-55" x1="260.43" y1="72.99" x2="260.43" y2="77.47" gradientUnits="userSpaceOnUse"><stop offset="0" stop-color="#f69f00"/><stop offset="1" stop-color="#ee752f"/></linearGradient><radialGradient id="radial-gradient-30" cx="260.43" cy="72.83" r="9.66" gradientUnits="userSpaceOnUse"><stop offset="0.3" stop-color="#fff"/><stop offset="0.36" stop-color="#fffdf7" stop-opacity="0.96"/><stop offset="0.46" stop-color="#fff7e2" stop-opacity="0.86"/><stop offset="0.59" stop-color="#feeec0" stop-opacity="0.7"/><stop offset="0.74" stop-color="#fee190" stop-opacity="0.47"/><stop offset="0.9" stop-color="#fdd055" stop-opacity="0.18"/><stop offset="1" stop-color="#fdc62f" stop-opacity="0"/></radialGradient><linearGradient id="linear-gradient-56" x1="257.83" y1="72.99" x2="257.83" y2="77.47" gradientUnits="userSpaceOnUse"><stop offset="0" stop-color="#f29661"/><stop offset="1" stop-color="#fff"/></linearGradient><radialGradient id="radial-gradient-31" cx="162.38" cy="2.53" r="21.58" gradientUnits="userSpaceOnUse"><stop offset="0.42" stop-color="#ee752f" stop-opacity="0"/><stop offset="1" stop-color="#ee752f"/></radialGradient><linearGradient id="linear-gradient-57" x1="264.44" y1="13.71" x2="266.95" y2="18.86" gradientUnits="userSpaceOnUse"><stop offset="0.29" stop-color="#ee752f" stop-opacity="0"/><stop offset="1" stop-color="#ee752f"/></linearGradient><linearGradient id="linear-gradient-58" x1="261.11" y1="18.2" x2="260.44" y2="21.99" gradientUnits="userSpaceOnUse"><stop offset="0" stop-color="#ee752f" stop-opacity="0"/><stop offset="0.22" stop-color="#ee752f" stop-opacity="0.2"/><stop offset="0.7" stop-color="#ee752f" stop-opacity="0.69"/><stop offset="1" stop-color="#ee752f"/></linearGradient><linearGradient id="linear-gradient-59" x1="255.99" y1="11.52" x2="252.51" y2="16.88" xlink:href="#linear-gradient-57"/><radialGradient id="radial-gradient-32" cx="161.2" cy="1.19" r="24.04" gradientUnits="userSpaceOnUse"><stop offset="0" stop-color="#4fbe89"/><stop offset="0.05" stop-color="#4fbe89" stop-opacity="0.81"/><stop offset="0.11" stop-color="#4fbe89" stop-opacity="0.6"/><stop offset="0.18" stop-color="#4fbe89" stop-opacity="0.41"/><stop offset="0.25" stop-color="#4fbe89" stop-opacity="0.26"/><stop offset="0.32" stop-color="#4fbe89" stop-opacity="0.15"/><stop offset="0.4" stop-color="#4fbe89" stop-opacity="0.06"/><stop offset="0.5" stop-color="#4fbe89" stop-opacity="0.02"/><stop offset="0.63" stop-color="#4fbe89" stop-opacity="0"/></radialGradient></defs><g class="cls-1"><g id="Capa_1" data-name="Capa 1"><rect class="cls-2" width="200.68" height="80"/><g id="Logo"><g id="Trophy"><path class="cls-3" d="M273,59.43a12.49,12.49,0,0,0-.12-1.29,21.68,21.68,0,0,0-.74-3A55.46,55.46,0,0,0,266.33,62a10.07,10.07,0,0,0,3.42,4.47h0l.3,1a13.53,13.53,0,0,0,2.43-4.23v0A10.81,10.81,0,0,0,273,59.43Z" transform="translate(-99.37 0.19)"/><path class="cls-4" d="M272.17,55.08h0l-.33.33a6.15,6.15,0,0,1,.91,1.9,22.5,22.5,0,0,0-.59-2.22Z" transform="translate(-99.37 0.19)"/><path class="cls-5" d="M273,59.43a12.49,12.49,0,0,0-.12-1.29,21.68,21.68,0,0,0-.74-3c-.8.79-1.59,1.64-2.38,2.53a13.27,13.27,0,0,1,2.92,4.84A11,11,0,0,0,273,59.43Z" transform="translate(-99.37 0.19)"/><polygon class="cls-6" points="176.63 54.72 181.38 48.5 175.16 55.37 176.63 54.72"/><polygon class="cls-7" points="172.68 67.14 176.81 73.51 174.44 68.45 172.68 67.14"/><polygon class="cls-8" points="172.68 67.14 174.44 68.45 183.97 70.59 172.68 67.14 172.68 67.14"/><polygon class="cls-9" points="175.16 55.37 175.16 55.37 188.24 54.47 176.64 54.7 175.16 55.37"/><path class="cls-10" d="M276.89,58.78l10.71-4.5-12.75,4.47Z" transform="translate(-99.37 0.19)"/><polygon class="cls-11" points="175.48 58.94 188.99 63.57 177.52 58.97 175.48 58.94"/><polygon class="cls-12" points="174.9 63.2 174.9 63.2 183.97 70.59 177.18 64.14 174.9 63.2"/><polygon class="cls-13" points="174.9 63.2 174.9 63.2 177.18 64.14 188.99 63.57 174.9 63.2"/><path class="cls-14" d="M274.27,63l14.08.36-13.5-4.62,12.75-4.47-13.08.9,6.24-6.89-.2.12h0a46.57,46.57,0,0,0-7.78,6.07h0a17.59,17.59,0,0,1,.55,2.53,12.45,12.45,0,0,1,.11,1.56,11.13,11.13,0,0,1-.54,3.52l0,.11a1.46,1.46,0,0,1-.07.19c-.1.29-.2.55-.31.8v0h0a13.77,13.77,0,0,1-2.44,4.23l.79,2.59,5.33,3.32L272.05,67l11.28,3.45Z" transform="translate(-99.37 0.19)"/><path class="cls-15" d="M274.27,63l14.08.36-13.5-4.62,12.75-4.47-13.08.9,6.24-6.89-.2.12a46.57,46.57,0,0,0-7.78,6.07h0a17.59,17.59,0,0,1,.55,2.53,12.45,12.45,0,0,1,.11,1.56,11.19,11.19,0,0,1-.54,3.53l0,.1s0,.11-.06.18c-.1.29-.21.56-.32.81v0h0a13.77,13.77,0,0,1-2.44,4.23l.79,2.59,5.33,3.32L272.05,67l11.28,3.45Z" transform="translate(-99.37 0.19)"/><path class="cls-16" d="M272.94,54.32l-.16.16h0a17.59,17.59,0,0,1,.55,2.53,12.45,12.45,0,0,1,.11,1.56,11.13,11.13,0,0,1-.54,3.52l0,.11a1.46,1.46,0,0,1-.07.19c-.1.29-.2.55-.31.8v0a13.53,13.53,0,0,1-2.43,4.23l.79,2.59,1.06.66a13.79,13.79,0,0,0,1.43-1.71l-1-1.53-.3-.46.65.2,1.44.44a10.66,10.66,0,0,0,1.13-3.76l0,0-1-.79,1.07,0A16.57,16.57,0,0,0,272.94,54.32Z" transform="translate(-99.37 0.19)"/><polygon class="cls-17" points="183.52 50.75 179.3 53.33 186.75 51.04 183.52 50.75"/><polygon class="cls-18" points="184.71 58.91 179.98 59.13 187.61 60.49 184.71 58.91"/><polygon class="cls-19" points="183.01 66.12 179.35 64.89 183.66 67.45 183.01 66.12"/><polygon class="cls-20" points="179.12 71.18 175.71 69.62 177.5 71.53 179.12 71.18"/><path class="cls-21" d="M272.69,62.51l-.2.66c-.06.19-.14.39-.22.58h0a6.21,6.21,0,0,1-3.19,2.12c-.16-.14-.32-.28-.47-.43A5.86,5.86,0,0,0,272,63.54a5.33,5.33,0,0,0,.73-1.15.19.19,0,0,1,0,.07Zm-3.22-.67a2.62,2.62,0,0,0,1.38-1.63,3.3,3.3,0,0,0,.09-1.43,4.25,4.25,0,0,0-.66-1.72c-.26.28-.52.58-.78.88a3.41,3.41,0,0,1,.41,1,2.06,2.06,0,0,1-.43,1.88,2,2,0,0,1-.41.33,2.82,2.82,0,0,1-.48.27,2.64,2.64,0,0,1-1.07.27,3,3,0,0,1-.92-.12l-.24.32a3.16,3.16,0,0,0,1.14.35,3.27,3.27,0,0,0,1.35-.14A4.85,4.85,0,0,0,269.47,61.84Z" transform="translate(-99.37 0.19)"/><path class="cls-22" d="M272.78,54.48l-.62.61a21.68,21.68,0,0,1,.74,3,12.49,12.49,0,0,1,.12,1.29,10.81,10.81,0,0,1-.53,3.76,11.15,11.15,0,0,0,.95-4.62,12.45,12.45,0,0,0-.11-1.56A17.59,17.59,0,0,0,272.78,54.48Z" transform="translate(-99.37 0.19)"/><path class="cls-23" d="M250.69,52.67a13.58,13.58,0,0,0-1.41,4.18h0v0c0,.12,0,.25-.05.38h0a8.58,8.58,0,0,0,0,1.38h0c0,.13,0,.26,0,.39l.06.6a11.62,11.62,0,0,0,.27,1.43c.1.33.2.66.31,1l0,.09a20.37,20.37,0,0,0,1.68,3.48l.18.28a13.92,13.92,0,0,0,4.07-7.53h0A39.26,39.26,0,0,0,250.69,52.67Z" transform="translate(-99.37 0.19)"/><path class="cls-24" d="M249.2,57.61s0,.1,0,.15a1.48,1.48,0,0,0,0,.21v.72c0,.11,0,.22,0,.33l.06.6a11.36,11.36,0,0,0,.61,2.51,19.17,19.17,0,0,0,1.86,3.75,11.48,11.48,0,0,0,2.53-3.25A12.7,12.7,0,0,1,249.2,57.61Z" transform="translate(-99.37 0.19)"/><path class="cls-25" d="M251.47,60.42a14.08,14.08,0,0,1-2.1-3.3c-.06.16-.12.33-.17.51v.1a10.66,10.66,0,0,0,.36,3.41h0q.15.53.33,1a20.32,20.32,0,0,0,1.84,3.7,11.18,11.18,0,0,0,2.07-2.47A4.3,4.3,0,0,1,251.47,60.42Z" transform="translate(-99.37 0.19)"/><path class="cls-26" d="M250.07,62.67a20.18,20.18,0,0,0,1.41,2.85l.14.21c0,.06.07.11.1.16h0a9,9,0,0,0,.7-.68h0A5.59,5.59,0,0,1,250.07,62.67Z" transform="translate(-99.37 0.19)"/><path class="cls-27" d="M251.59,60.91a3.44,3.44,0,0,1-.17-1.43,2.63,2.63,0,0,1,.55-1.36,3.85,3.85,0,0,1,.51-.49,5,5,0,0,1,.57-.37,3.42,3.42,0,0,1,1.31-.39h.29c.14.16.26.33.39.49a3.15,3.15,0,0,0-.61.06,2.83,2.83,0,0,0-1,.45,3,3,0,0,0-.43.36,2,2,0,0,0-.34.4,2,2,0,0,0-.09,1.92,3.43,3.43,0,0,0,1.35,1.59,3.38,3.38,0,0,0,.46.24,11.41,11.41,0,0,1-.58,1h0a5.39,5.39,0,0,1-.52-.3A4.51,4.51,0,0,1,251.59,60.91Zm.24-7.15a6.19,6.19,0,0,0-2.44,2.48c0,.2-.08.41-.11.61h0v0l0,.12c0,.21-.06.44-.08.69h0a4.63,4.63,0,0,1,.51-1.21,5.69,5.69,0,0,1,2.5-2.28Z" transform="translate(-99.37 0.19)"/><path class="cls-28" d="M244,47.73l3.1,4.36,2,1-5-5.28Z" transform="translate(-99.37 0.19)"/><polygon class="cls-29" points="147.7 52.28 137.95 51.88 149.66 53.25 147.7 52.28"/><polygon class="cls-30" points="149.34 65.29 148.02 66.17 148.01 66.18 144.42 73.14 144.45 73.1 149.34 65.28 149.34 65.29"/><polygon class="cls-31" points="136.63 68.5 148.01 66.17 148.02 66.17 149.34 65.29 149.34 65.28 136.63 68.5"/><path class="cls-32" d="M247.75,61.64h-.11l-1.89.32L236,68.31Z" transform="translate(-99.37 0.19)"/><polygon class="cls-33" points="134.27 59.69 146.36 62.16 146.38 62.16 148.27 61.84 148.38 61.83 134.27 59.69"/><polygon class="cls-34" points="148.19 57.53 137.95 51.88 145.78 57.02 148.19 57.53 148.19 57.53"/><polygon class="cls-35" points="148.18 57.53 145.78 57.02 134.27 59.69 148.19 57.53 148.18 57.53"/><path class="cls-14" d="M249.16,61.78a11.09,11.09,0,0,1,.12-5,13.73,13.73,0,0,1,1.41-4.14A41.59,41.59,0,0,0,244,47.75l5,5.31-11.72-1.37,10.24,5.65L233.63,59.5l14.12,2.14L236,68.31l12.71-3.22-4.92,7.85L251,66.81l.09-.29,0,0c-.07-.13-.13-.26-.2-.38a17.54,17.54,0,0,1-1.23-2.7A11.71,11.71,0,0,1,249.16,61.78Z" transform="translate(-99.37 0.19)"/><path class="cls-36" d="M249.16,61.78a11.09,11.09,0,0,1,.12-5,13.73,13.73,0,0,1,1.41-4.14A41.59,41.59,0,0,0,244,47.75l5,5.31-11.72-1.37,10.24,5.65L233.63,59.5l14.12,2.14L236,68.31l12.71-3.22-4.92,7.85L251,66.81l.09-.29,0,0c-.07-.13-.13-.26-.2-.38a17.54,17.54,0,0,1-1.23-2.7A11.71,11.71,0,0,1,249.16,61.78Z" transform="translate(-99.37 0.19)"/><path class="cls-37" d="M249.16,61.78a10.88,10.88,0,0,1,.13-5v.05a13.53,13.53,0,0,1,1.41-4.17c-.91-.83-1.84-1.6-2.78-2.31-.18.33-.35.65-.5,1L249,53.06l-2.18-.25a10.9,10.9,0,0,0-.44,3.9l1.14.63-1.06.16a16.9,16.9,0,0,0,4.4,8.69.3.3,0,0,1,0-.08,17.05,17.05,0,0,1-1.25-2.72A11.71,11.71,0,0,1,249.16,61.78Z" transform="translate(-99.37 0.19)"/><polygon class="cls-38" points="141.94 71.33 145.62 68.03 138.7 71.62 141.94 71.33"/><polygon class="cls-39" points="139.31 63.51 143.92 62.45 136.17 62.47 139.31 63.51"/><polygon class="cls-40" points="139.69 56.11 143.51 56.67 138.82 54.91 139.69 56.11"/><polygon class="cls-41" points="142.62 50.44 146.25 51.36 144.14 49.8 142.62 50.44"/><path class="cls-22" d="M249.61,63.39a17,17,0,0,0,1.47,3.1l0-.07c.22-.17.42-.35.62-.53a19.8,19.8,0,0,1-1.86-3.76,12.15,12.15,0,0,1-.4-1.32,10.49,10.49,0,0,1-.17-4,10.88,10.88,0,0,0-.13,5A11.71,11.71,0,0,0,249.61,63.39Z" transform="translate(-99.37 0.19)"/><path class="cls-42" d="M227.47,41.9s.31,0,.87.12,1.37.23,2.38.45,2.21.53,3.55,1A45.65,45.65,0,0,1,238.65,45a46.93,46.93,0,0,1,4.87,2.43,41.72,41.72,0,0,1,5,3.41,38.53,38.53,0,0,1,4.85,4.53c.82.94,1.62,1.92,2.39,3,.06-.26.12-.52.17-.78C252.77,52.13,244.7,42.47,227.47,41.9Z" transform="translate(-99.37 0.19)"/><path class="cls-43" d="M227.47,41.9s.31,0,.87.12,1.37.23,2.38.45,2.21.53,3.55,1A45.65,45.65,0,0,1,238.65,45a46.93,46.93,0,0,1,4.87,2.43,41.72,41.72,0,0,1,5,3.41,38.53,38.53,0,0,1,4.85,4.53c.82.94,1.62,1.92,2.39,3,.06-.26.12-.52.17-.78C252.77,52.13,244.7,42.47,227.47,41.9Z" transform="translate(-99.37 0.19)"/><path class="cls-42" d="M249.91,34s-3.27-5.83-6.83-8.4c0,0,3.7,4.14,4.67,7.19A16,16,0,0,1,249.91,34Z" transform="translate(-99.37 0.19)"/><path class="cls-44" d="M243.08,25.57s3.7,4.14,4.67,7.19A16,16,0,0,1,249.91,34S246.64,28.14,243.08,25.57Z" transform="translate(-99.37 0.19)"/><path class="cls-45" d="M246.62,37.06a21.66,21.66,0,0,1,2.26.79s-3.51-4.8-11.54-7A24.53,24.53,0,0,1,246.62,37.06Z" transform="translate(-99.37 0.19)"/><path class="cls-46" d="M246.62,37.06a23.28,23.28,0,0,1,2.26.79s-3.51-4.8-11.54-7A24.53,24.53,0,0,1,246.62,37.06Z" transform="translate(-99.37 0.19)"/><path class="cls-45" d="M250.47,44.17a26.26,26.26,0,0,0-17.4-7.91s8.38,1.41,14,6.29A15.17,15.17,0,0,1,250.47,44.17Z" transform="translate(-99.37 0.19)"/><path class="cls-47" d="M233.07,36.26s8.38,1.41,14,6.29a15.17,15.17,0,0,1,3.42,1.62A26.26,26.26,0,0,0,233.07,36.26Z" transform="translate(-99.37 0.19)"/><path class="cls-48" d="M227.47,41.9c17.24.57,25.3,10.23,28.49,15.68,1.2-6.73.2-13.65-1.13-20.29a20.64,20.64,0,0,0-11.75-11.72c3.56,2.57,6.83,8.4,6.83,8.4-5.41-3.66-12.57-3.13-12.57-3.13,8,2.21,11.54,7,11.54,7-7.35-3.07-15.81-1.59-15.81-1.59a26.26,26.26,0,0,1,17.4,7.91C242.69,39.1,227.47,41.9,227.47,41.9Z" transform="translate(-99.37 0.19)"/><path class="cls-49" d="M249.68,33.59a28.11,28.11,0,0,0-6.6-8h0A21.06,21.06,0,0,1,251.86,32C251.15,32.48,250.3,33.11,249.68,33.59Zm-.17.13h0a16.09,16.09,0,0,0-2.58-1.32h0a23.92,23.92,0,0,0-9.59-1.56A25.46,25.46,0,0,1,245,34.33h0A22,22,0,0,1,247.05,36,26.56,26.56,0,0,1,249.51,33.72Zm-3.34,3.21a32.9,32.9,0,0,0-13.1-.67,26.31,26.31,0,0,1,11.19,3.2,24.68,24.68,0,0,1,1.91-2.53ZM243,41.58a51.87,51.87,0,0,0-15.52.32l1.24.07h0a38,38,0,0,1,12.72,2.88A35.59,35.59,0,0,1,243,41.58Z" transform="translate(-99.37 0.19)"/><path class="cls-50" d="M246.17,36.93a24.68,24.68,0,0,0-1.91,2.53,26.31,26.31,0,0,0-11.19-3.2,32.9,32.9,0,0,1,13.1.67Zm3.34-3.21h0a16.09,16.09,0,0,0-2.58-1.32h0a23.92,23.92,0,0,0-9.59-1.56A25.46,25.46,0,0,1,245,34.33h0A22,22,0,0,1,247.05,36,26.56,26.56,0,0,1,249.51,33.72ZM251.86,32a21.06,21.06,0,0,0-8.78-6.46h0a28.11,28.11,0,0,1,6.6,8C250.3,33.11,251.15,32.48,251.86,32ZM243,41.58a51.87,51.87,0,0,0-15.52.32l1.24.07h0a38,38,0,0,1,12.72,2.88A35.59,35.59,0,0,1,243,41.58Z" transform="translate(-99.37 0.19)"/><path class="cls-51" d="M251.1,44.73h0c-.11-.11-.63-.56-.63-.56-7.78-5.07-23-2.27-23-2.27s19.59-.17,25.43,5.44A6.64,6.64,0,0,0,251.1,44.73Z" transform="translate(-99.37 0.19)"/><path class="cls-52" d="M251.74,36.63l0,0a23.67,23.67,0,0,0-14.43-5.84,23.86,23.86,0,0,1,9.83,1.66A15,15,0,0,1,249.89,34c.07,0-.08-.07,0,0l0,0a9.52,9.52,0,0,1,1.44,1.85Z" transform="translate(-99.37 0.19)"/><path class="cls-53" d="M256.2,56.06c.78-6.27-.12-12.62-1.37-18.77a20.73,20.73,0,0,0-.83-1.91c.63,4.77-.14,11.2-3.36,15.5v0A30.86,30.86,0,0,1,256,57.58C256.05,57.08,256.14,56.57,256.2,56.06Z" transform="translate(-99.37 0.19)"/><path class="cls-54" d="M248.88,37.85c-7.35-3.07-15.81-1.59-15.81-1.59s11.55-.1,18.5,4.73c-.5-1.24-1.83-2.28-2.69-3.14" transform="translate(-99.37 0.19)"/><path class="cls-55" d="M287.1,29.9a1.49,1.49,0,0,0,.43,2,1.57,1.57,0,0,0,1.86-2.49A1.58,1.58,0,0,0,287.1,29.9Z" transform="translate(-99.37 0.19)"/><path class="cls-56" d="M287.1,30.05s-.62,1.63,1.74,1.23c.43-.07.48.83-.1.76C286.22,31.73,287.1,30.05,287.1,30.05Z" transform="translate(-99.37 0.19)"/><path class="cls-57" d="M289.85,30.45a1.38,1.38,0,0,0-1.85-1.1S289.61,31.35,289.85,30.45Z" transform="translate(-99.37 0.19)"/><path class="cls-58" d="M289.3,39a8.87,8.87,0,0,0-5.19-8.6,2,2,0,0,0-.19.25C288.42,33.19,289.29,36.66,289.3,39Z" transform="translate(-99.37 0.19)"/><path class="cls-59" d="M283.84,27.05a11.91,11.91,0,0,1,9,1.39c-11.27-7.36-16.72,5.37-16.72,5.37S278.69,28.31,283.84,27.05Z" transform="translate(-99.37 0.19)"/><path class="cls-60" d="M266,61l.05.12a.93.93,0,0,0,0,.13l0,.12.05.11s0,.08,0,.12l.05.12,0,.12a.54.54,0,0,0,.05.11,55.27,55.27,0,0,1,4.08-5,49.3,49.3,0,0,1,4.15-4.07,46.83,46.83,0,0,1,4.13-3.21,42.1,42.1,0,0,1,4-2.45c1.29-.7,2.55-1.29,3.74-1.79s2.33-.9,3.39-1.23,2.05-.58,2.94-.78,1.69-.34,2.38-.43A40.38,40.38,0,0,0,289.06,44a38.59,38.59,0,0,0-5.29,1.72,37.11,37.11,0,0,0-4.56,2.2,35.36,35.36,0,0,0-3.86,2.55,34.22,34.22,0,0,0-3.21,2.73A36.66,36.66,0,0,0,269.53,56c-.77.91-1.45,1.8-2,2.65S266.39,60.28,266,61Z" transform="translate(-99.37 0.19)"/><path class="cls-61" d="M272.68,45.64a12.61,12.61,0,0,1,1.53-1.06c-1.71-4.25-.19-9.09,1.78-12.9A36.76,36.76,0,0,1,280.5,25C269.3,35.88,272.68,45.64,272.68,45.64Z" transform="translate(-99.37 0.19)"/><path class="cls-62" d="M298,42.73s-17.31-3.64-25.34,2.91c0,0-3.38-9.76,7.82-20.66a27,27,0,0,0-14.26,14.77c-1.52,7.7-2.18,15.71-.28,21.25C269.59,54.88,278.81,43.67,298,42.73Z" transform="translate(-99.37 0.19)"/><path class="cls-63" d="M276.08,33.81a7.49,7.49,0,0,1,7.38-1.13,8.41,8.41,0,0,1,5.48,8.75s2.34-6.6-5-10.82c0,0,2.75-4.19,9.42-1.8a11.75,11.75,0,0,0-9.5-1.76C278.69,28.31,276.08,33.81,276.08,33.81Z" transform="translate(-99.37 0.19)"/><path class="cls-64" d="M273.81,29.18a27,27,0,0,0-7.57,10.57c-1.51,7.7-2.18,15.71-.28,21.25a36.46,36.46,0,0,1,4.48-6A35.59,35.59,0,0,1,273.81,29.18Z" transform="translate(-99.37 0.19)"/><path class="cls-55" d="M281.32,40a2.94,2.94,0,0,1-3.9,1.39,3.11,3.11,0,0,1,2.3-5.73A3.14,3.14,0,0,1,281.32,40Z" transform="translate(-99.37 0.19)"/><path class="cls-65" d="M276,39.45c-.21-1.15.6-1.61,1.18-1,.92,1.06,1.89,1.42,2.73.92s1.43,0,1.15.74C279.36,42.8,276.24,40.81,276,39.45Z" transform="translate(-99.37 0.19)"/><path class="cls-66" d="M277.53,35.92a2.74,2.74,0,0,1,3.79,2A4,4,0,0,0,277.53,35.92Z" transform="translate(-99.37 0.19)"/><path class="cls-67" d="M298,42.73c-.47-.1-.92-.18-1.46-.26l-.85-.13-.65-.09h0a56,56,0,0,0-7.09-.52c.33.74.65,1.56.91,2.34A47.81,47.81,0,0,1,298,42.73Z" transform="translate(-99.37 0.19)"/><path class="cls-68" d="M280.5,25a24,24,0,0,0-5.75,3.43c.65.29,1.3.62,1.92,1A34.29,34.29,0,0,1,280.5,25Z" transform="translate(-99.37 0.19)"/><path class="cls-69" d="M287.59,28.29a6.6,6.6,0,0,0-3.67,2.32,11.37,11.37,0,0,1,3.65,3.14s-3.4-3.25-6-2.95C281.56,30.8,284.65,28.41,287.59,28.29Z" transform="translate(-99.37 0.19)"/><path class="cls-70" d="M287.34,37s-1.23-3.19-5.94-3.8A11.71,11.71,0,0,1,287.34,37Z" transform="translate(-99.37 0.19)"/><path class="cls-71" d="M271.21,49.66s6.63-9.16,23-7.52c-5.1-.61-14.14-1-20,2.44h0a14.39,14.39,0,0,0-1.53,1.06,6.8,6.8,0,0,1-.23-.94h0a18.76,18.76,0,0,1,1.91-11.52C269.55,39.42,271.21,49.66,271.21,49.66Z" transform="translate(-99.37 0.19)"/><g id="Trophy-2" data-name="Trophy"><path class="cls-72" d="M260.63,21.87a10,10,0,0,1-3.71-.72,13.14,13.14,0,0,1,1.39,2.92,50.92,50.92,0,0,1,1.87,6.68c.15.69.4,1.91.64,3.37.1-1.17.23-2.39.38-3.6.64-5.09,1.47-7.7,2.34-9.08A10,10,0,0,1,260.63,21.87Z" transform="translate(-99.37 0.19)"/><path class="cls-73" d="M251.94,20.89a6.88,6.88,0,0,1-2.45-2.22l.35,1.14a134.85,134.85,0,0,1,5,17.41l0,.07c1.33,6.64,2.33,13.56,1.13,20.29h0c-.05.26-.11.51-.16.77h0a13.53,13.53,0,0,1-4.69,8.06h7.77C261.21,56.21,255.69,23.36,251.94,20.89Z" transform="translate(-99.37 0.19)"/><path class="cls-74" d="M263.38,60.72c0-.08,0-.16,0-.23a253.7,253.7,0,0,1,1.92-27.11v0c0-.22.06-.45.1-.67v-.09c0-.21.06-.42.1-.62v-.12c0-.2.07-.4.1-.6l0-.13c0-.19.06-.38.1-.57l0-.13c0-.19.07-.38.1-.57l0-.1c0-.19.07-.39.11-.58v0c.15-.83.32-1.61.5-2.34a.36.36,0,0,0,0-.1c0-.14.07-.27.11-.4s0-.13,0-.19.07-.23.1-.35l.06-.21.09-.32L267,25l.09-.29.07-.22.09-.27.08-.21c0-.08.06-.17.09-.24s.06-.15.08-.22l.09-.21.09-.21.09-.19.1-.2.08-.17.12-.21.07-.12c.06-.11.13-.21.19-.3h0a2.51,2.51,0,0,1,.19-.24l0-.05.18-.2,0,0,.18-.15,0,0,.19-.13,0,0,.21-.08.26-.12.21-.1.08,0c.14-.08.29-.16.42-.25h0l.37-.27.05,0c.12-.1.24-.2.35-.31l0,0a3.34,3.34,0,0,0,.32-.33h0l.29-.37h0a8.35,8.35,0,0,0,.49-.78h0a8.63,8.63,0,0,0,1-4c-.16-2.52-1-4.22-3.05-5.07a10,10,0,0,1-6.72,12.11c-.87,1.38-1.7,4-2.34,9.08-.15,1.21-.28,2.43-.38,3.6-.24-1.46-.49-2.68-.64-3.37a50.92,50.92,0,0,0-1.87-6.68,13.14,13.14,0,0,0-1.39-2.92,10,10,0,0,1-6.12-7.61,5.41,5.41,0,0,0-1.53,2.1c-.86,2.58.75,4.07,2.67,5.25,3.75,2.47,9.27,35.32,6.93,45.53h6.42C264,66,263.42,62.71,263.38,60.72Z" transform="translate(-99.37 0.19)"/><path class="cls-74" d="M263.38,60.72c0-.08,0-.16,0-.23a253.7,253.7,0,0,1,1.92-27.11v0c0-.22.06-.45.1-.67v-.09c0-.21.06-.42.1-.62v-.12c0-.2.07-.4.1-.6l0-.13c0-.19.06-.38.1-.57l0-.13c0-.19.07-.38.1-.57l0-.1c0-.19.07-.39.11-.58v0c.15-.83.32-1.61.5-2.34a.36.36,0,0,0,0-.1c0-.14.07-.27.11-.4s0-.13,0-.19.07-.23.1-.35l.06-.21.09-.32L267,25l.09-.29.07-.22.09-.27.08-.21c0-.08.06-.17.09-.24s.06-.15.08-.22l.09-.21.09-.21.09-.19.1-.2.08-.17.12-.21.07-.12c.06-.11.13-.21.19-.3h0a2.51,2.51,0,0,1,.19-.24l0-.05.18-.2,0,0,.18-.15,0,0,.19-.13,0,0,.21-.08.26-.12.21-.1.08,0c.14-.08.29-.16.42-.25h0l.37-.27.05,0c.12-.1.24-.2.35-.31l0,0a3.34,3.34,0,0,0,.32-.33h0l.29-.37h0a8.35,8.35,0,0,0,.49-.78h0a8.63,8.63,0,0,0,1-4c-.16-2.52-1-4.22-3.05-5.07a10,10,0,0,1-6.72,12.11c-.87,1.38-1.7,4-2.34,9.08-.15,1.21-.28,2.43-.38,3.6-.24-1.46-.49-2.68-.64-3.37a50.92,50.92,0,0,0-1.87-6.68,13.14,13.14,0,0,0-1.39-2.92,10,10,0,0,1-6.12-7.61,5.41,5.41,0,0,0-1.53,2.1c-.86,2.58.75,4.07,2.67,5.25,3.75,2.47,9.27,35.32,6.93,45.53h6.42C264,66,263.42,62.71,263.38,60.72Z" transform="translate(-99.37 0.19)"/><path class="cls-75" d="M272.53,18l.09-.2,0-.1c0-.07.06-.14.08-.2a1,1,0,0,1,0-.1,2.25,2.25,0,0,0,.08-.24l0-.05c0-.09.06-.19.08-.28l0-.08c0-.07,0-.13.05-.2a.3.3,0,0,0,0-.1c0-.06,0-.12.05-.17a.36.36,0,0,1,0-.1l0-.19,0-.06a2,2,0,0,1,0-.24v-.07a.77.77,0,0,1,0-.15v-.09s0-.08,0-.12v-.09a.45.45,0,0,0,0-.11v-.08s0-.1,0-.14a2.58,2.58,0,0,0,0-.4.17.17,0,0,0,0-.07,2.19,2.19,0,0,0,0-.36,1.9,1.9,0,0,0,0-.25h0c0-.1,0-.2,0-.3a2,2,0,0,0,0-.24l0-.21-.06-.24a1.05,1.05,0,0,0-.05-.19.83.83,0,0,0,0-.15c0-.07,0-.14-.07-.22a.19.19,0,0,1,0-.08,4.87,4.87,0,0,0-.38-.83h0a4.35,4.35,0,0,0-2.25-1.92,10,10,0,0,1-6.72,12.11c-.87,1.38-1.7,4-2.34,9.08-.15,1.21-.28,2.43-.38,3.6-.24-1.46-.49-2.68-.64-3.37a50.92,50.92,0,0,0-1.87-6.68,13.14,13.14,0,0,0-1.39-2.92,10,10,0,0,1-6.12-7.61,6.28,6.28,0,0,0-1.31,1.6h0a3.05,3.05,0,0,0-.22.5,4,4,0,0,0-.12.43v0c0,.13,0,.26-.07.39v0c0,.12,0,.25,0,.37v0c0,.12,0,.23,0,.35v0c0,.12,0,.23,0,.34v0a3,3,0,0,0,.08.32v0l.12.32h0c0,.1.1.21.16.31h0a3.53,3.53,0,0,0,.21.32h0l.24.31h0a3.58,3.58,0,0,0,.27.29h0a4,4,0,0,0,.3.28h0l.31.25h0l0,0h0c.22.17.45.33.69.49h0l.37.23c3.75,2.47,9.27,35.32,6.93,45.53h6.42a1.51,1.51,0,0,1-.66-.56l0,0-.08-.12,0,0-.06-.1a.25.25,0,0,1,0-.07l-.05-.08a.47.47,0,0,0-.05-.1l0-.06s0-.09,0-.13l0,0a1,1,0,0,0-.07-.15v0a1.22,1.22,0,0,1-.07-.17h0a10.79,10.79,0,0,1-.36-1.25h0c0-.07,0-.14,0-.21v0l0-.18,0-.08a.68.68,0,0,0,0-.14.78.78,0,0,1,0-.14v-.07a14.44,14.44,0,0,1-.18-1.75v-.17c0-.08,0-.16,0-.23a253.7,253.7,0,0,1,1.92-27.11c.08-.53.16-1.08.25-1.62l0-.19.09-.59c0-.09,0-.17,0-.25l.09-.57a1.7,1.7,0,0,0,0-.22l.3-1.56,0-.15c.05-.21.1-.43.14-.64a.83.83,0,0,1,0-.15c0-.25.11-.51.17-.76.15-.57.31-1.15.48-1.72,0-.09.05-.18.08-.26l.07-.22.09-.27.08-.21c0-.08.06-.17.09-.24s.06-.15.08-.22l0-.08c.06-.14.11-.27.17-.4v0a8.49,8.49,0,0,1,.61-1.11h0l.2-.25v0l.21-.23h0l.21-.18h0l.21-.13h0a1.09,1.09,0,0,1,.23-.09l.26-.12.21-.1H270c.14-.08.29-.16.42-.25h0c.12-.08.24-.16.35-.25h0l.05,0,.06-.05.22-.19a.46.46,0,0,0,.07-.07l0,0,0,0a3.83,3.83,0,0,0,.28-.29l0,0h0l.08-.11.17-.21,0-.05h0a.21.21,0,0,1,0-.06l.18-.28.05-.07c.08-.12.15-.25.22-.37h0l.15-.29A.42.42,0,0,1,272.53,18Z" transform="translate(-99.37 0.19)"/><path class="cls-76" d="M272.34,18.35h0l-.23.4-.11.15-.15.23h0a4,4,0,0,1-.26.32l0,.05h0l-.06.07-.2.21-.06.05,0,0,0,0c-.1.1-.21.19-.32.28h0l0,0,0,0-.37.27h0l-.06,0-.33.19,0,0-.08,0-.21.1-.26.12-.21.08,0,0-.19.13,0,0-.18.15,0,0-.18.2,0,.05a2.51,2.51,0,0,0-.19.24h0c-.06.09-.13.19-.19.3l-.07.12-.12.21-.08.17-.1.2-.09.19-.09.21-.09.21c0,.07-.05.14-.08.22s-.06.16-.09.24l-.08.21-.09.27-.07.22L267,25l-.07.22-.09.32-.06.21c0,.12-.06.23-.1.35s0,.13,0,.19-.07.26-.11.4a.36.36,0,0,1,0,.1c-.09.39-.19.8-.28,1.22s-.15.74-.22,1.12v0c0,.19-.08.39-.11.58l0,.1c0,.19-.07.38-.1.57l0,.13c0,.19-.07.38-.1.57l0,.13c0,.2-.07.4-.1.6V32c0,.2-.07.41-.1.62v.09c0,.22-.07.45-.1.67v0a252.88,252.88,0,0,0-1.91,27.11v.23c0,.16,0,.34,0,.52.13,2,.73,4.75,1.89,5.18h4.47c-11.18-7.88-.34-40.06,2.58-48.08Z" transform="translate(-99.37 0.19)"/><path class="cls-77" d="M262,21.77a8.65,8.65,0,0,1-1.41.1h-.52l-.17,0a9.94,9.94,0,0,1-2.3-.43l-.21-.07-.28-.1-.18-.07-.05,0a13.14,13.14,0,0,1,1.39,2.92,50.92,50.92,0,0,1,1.87,6.68c.15.69.4,1.91.64,3.37.1-1.17.23-2.39.38-3.6.64-5,1.45-7.64,2.31-9l0,0A9.19,9.19,0,0,1,262,21.77Z" transform="translate(-99.37 0.19)"/><path class="cls-78" d="M269.41,21a6.18,6.18,0,0,0,1-.51,5.89,5.89,0,0,0,1.94-2.15h0a9,9,0,0,0,1-3.56,5.45,5.45,0,0,0-.07-1.07,6.66,6.66,0,0,0-.73-2.47c.28,1.45.21,6.26-3.78,8-4.92,1.63-6,37-6,41.45a13.51,13.51,0,0,0,1.61,5.69h1c-1.32-.5-1.91-3.93-1.92-5.93a253.7,253.7,0,0,1,1.92-27.11c.32-2.22.71-4.55,1.23-6.7a16,16,0,0,1,1.8-4.75h0a4.11,4.11,0,0,1,.42-.5l.21-.18h0A1.6,1.6,0,0,1,269.41,21Z" transform="translate(-99.37 0.19)"/><path class="cls-79" d="M269.41,21a6.18,6.18,0,0,0,1-.51,5.89,5.89,0,0,0,1.94-2.15h0a9,9,0,0,0,1-3.56,5.45,5.45,0,0,0-.07-1.07,6.66,6.66,0,0,0-.73-2.47c.28,1.45.21,6.26-3.78,8-4.92,1.63-6,37-6,41.45a13.51,13.51,0,0,0,1.61,5.69h1c-1.32-.5-1.91-3.93-1.92-5.93a253.7,253.7,0,0,1,1.92-27.11c.32-2.22.71-4.55,1.23-6.7a16,16,0,0,1,1.8-4.75h0a4.11,4.11,0,0,1,.42-.5l.21-.18h0A1.6,1.6,0,0,1,269.41,21Z" transform="translate(-99.37 0.19)"/><path class="cls-80" d="M269.41,21a6.18,6.18,0,0,0,1-.51,5.89,5.89,0,0,0,1.94-2.15h0a9,9,0,0,0,1-3.56,5.45,5.45,0,0,0-.07-1.07,6.66,6.66,0,0,0-.73-2.47c.28,1.45.21,6.26-3.78,8-4.92,1.63-6,37-6,41.45a13.51,13.51,0,0,0,1.61,5.69h1c-1.32-.5-1.91-3.93-1.92-5.93a253.7,253.7,0,0,1,1.92-27.11c.32-2.22.71-4.55,1.23-6.7a16,16,0,0,1,1.8-4.75h0a4.11,4.11,0,0,1,.42-.5l.21-.18h0A1.6,1.6,0,0,1,269.41,21Z" transform="translate(-99.37 0.19)"/><path class="cls-81" d="M269.41,21a6.18,6.18,0,0,0,1-.51,5.89,5.89,0,0,0,1.94-2.15h0a9,9,0,0,0,1-3.56,5.45,5.45,0,0,0-.07-1.07,6.66,6.66,0,0,0-.73-2.47c.28,1.45.21,6.26-3.78,8-4.92,1.63-6,37-6,41.45a13.51,13.51,0,0,0,1.61,5.69h1c-1.32-.5-1.91-3.93-1.92-5.93a253.7,253.7,0,0,1,1.92-27.11c.32-2.22.71-4.55,1.23-6.7a16,16,0,0,1,1.8-4.75h0a4.11,4.11,0,0,1,.42-.5l.21-.18h0A1.6,1.6,0,0,1,269.41,21Z" transform="translate(-99.37 0.19)"/><path class="cls-82" d="M252.61,19c-1.49-.92-3-2.19-3-4.09h0a1.74,1.74,0,0,0-.11.18,3.05,3.05,0,0,0-.22.5,3.5,3.5,0,0,0,.22,3h0a3.53,3.53,0,0,0,.21.32h0a3.15,3.15,0,0,0,.24.3h0a3.58,3.58,0,0,0,.27.29h0l.16.15.13.12h0l.31.25,0,0,.22.16.11.08h0l.35.24h0l.37.23c3.75,2.47,9.27,35.32,6.93,45.53H260c.12-.62.23-1.92.31-2.63C261.17,50.78,256,21.41,252.61,19Z" transform="translate(-99.37 0.19)"/><path class="cls-83" d="M252.61,19c-1.49-.92-3-2.19-3-4.09h0a1.74,1.74,0,0,0-.11.18,3.05,3.05,0,0,0-.22.5,3.5,3.5,0,0,0,.22,3h0a3.53,3.53,0,0,0,.21.32h0a3.15,3.15,0,0,0,.24.3h0a3.58,3.58,0,0,0,.27.29h0l.16.15.13.12h0l.31.25,0,0,.22.16.11.08h0l.35.24h0l.37.23c3.75,2.47,9.27,35.32,6.93,45.53H260c.12-.62.23-1.92.31-2.63C261.17,50.78,256,21.41,252.61,19Z" transform="translate(-99.37 0.19)"/><path class="cls-82" d="M252.61,19c-1.49-.92-3-2.19-3-4.09h0a1.74,1.74,0,0,0-.11.18,3.05,3.05,0,0,0-.22.5,3.5,3.5,0,0,0,.22,3h0a3.53,3.53,0,0,0,.21.32h0a3.15,3.15,0,0,0,.24.3h0a3.58,3.58,0,0,0,.27.29h0l.16.15.13.12h0l.31.25,0,0,.22.16.11.08h0l.35.24h0l.37.23c3.75,2.47,9.27,35.32,6.93,45.53H260c.12-.62.23-1.92.31-2.63C261.17,50.78,256,21.41,252.61,19Z" transform="translate(-99.37 0.19)"/><path class="cls-84" d="M252.61,19c-1.49-.92-3-2.19-3-4.09h0a1.74,1.74,0,0,0-.11.18,3.05,3.05,0,0,0-.22.5,3.5,3.5,0,0,0,.22,3h0a3.53,3.53,0,0,0,.21.32h0a3.15,3.15,0,0,0,.24.3h0a3.58,3.58,0,0,0,.27.29h0l.16.15.13.12h0l.31.25,0,0,.22.16.11.08h0l.35.24h0l.37.23c3.75,2.47,9.27,35.32,6.93,45.53H260c.12-.62.23-1.92.31-2.63C261.17,50.78,256,21.41,252.61,19Z" transform="translate(-99.37 0.19)"/><path class="cls-85" d="M263.54,21.44a16.71,16.71,0,0,0-1.76,5.37,72.76,72.76,0,0,0-1,7.31,57.83,57.83,0,0,0-2.51-10,14.5,14.5,0,0,0-1.39-2.92h0a9.37,9.37,0,0,1-1.35-.66h0A37.69,37.69,0,0,1,257.46,26a151.83,151.83,0,0,1,3.81,20.6c.35-5.21.81-10.61,1.58-15.8a41.78,41.78,0,0,1,2.53-10.13h0A10.66,10.66,0,0,1,263.54,21.44Z" transform="translate(-99.37 0.19)"/><path class="cls-86" d="M263.54,21.44a16.71,16.71,0,0,0-1.76,5.37,72.76,72.76,0,0,0-1,7.31,57.83,57.83,0,0,0-2.51-10,14.5,14.5,0,0,0-1.39-2.92h0a9.37,9.37,0,0,1-1.35-.66h0A37.69,37.69,0,0,1,257.46,26a151.83,151.83,0,0,1,3.81,20.6c.35-5.21.81-10.61,1.58-15.8a41.78,41.78,0,0,1,2.53-10.13h0A10.66,10.66,0,0,1,263.54,21.44Z" transform="translate(-99.37 0.19)"/><path class="cls-87" d="M273.31,14.4c-.16-2.52-1-4.22-3.05-5.07a10,10,0,0,1-6.72,12.11c-.87,1.38-1.7,4-2.34,9.08-.15,1.21-.28,2.43-.38,3.6-.24-1.46-.49-2.68-.64-3.37a50.92,50.92,0,0,0-1.87-6.68,13.14,13.14,0,0,0-1.39-2.92,10,10,0,0,1-6.12-7.61,5.41,5.41,0,0,0-1.53,2.1c-.86,2.58.75,4.07,2.67,5.25,3.75,2.47,9.27,35.32,6.93,45.53h6.48c-1.35-.32-2-4-2-5.93,0-4.24,1.12-37.93,6-39.48C273.08,19.59,273.36,15.1,273.31,14.4Z" transform="translate(-99.37 0.19)"/></g><g id="Stand"><path class="cls-88" d="M248.71,76.62c3.12-.43,2.29-6.48,5.41-6.9s3.95,5.61,7.06,5.19,2.3-6.48,5.42-6.9c2.3-.32,3.35,2.88,5,4.42l-1.84-6H251.1L248,76.59A2.15,2.15,0,0,0,248.71,76.62Z" transform="translate(-99.37 0.19)"/><path class="cls-89" d="M247.66,77.67H273.2l-1.22-4a8,8,0,0,1-2.5-2.62c-1.06-1.5-1.77-2.4-2.78-2.27s-1.45,1.2-2.06,2.93-1.31,3.69-3.35,4-3.23-1.42-4.29-2.92-1.76-2.4-2.77-2.27-1.45,1.2-2.07,2.93-1.3,3.69-3.34,4l-.44,0a3.21,3.21,0,0,1-.63-.06" transform="translate(-99.37 0.19)"/><path class="cls-90" d="M248,76.59l.89-2.9c2.1-1.34,1.75-6.19,4.53-6.58,3.12-.42,4,5.62,7.07,5.19,2.39-.32,2.49-4,3.8-5.88h3.92c.9,1,1.65,2.38,2.57,3.29l.83,2.71h0c-1.65-1.53-2.7-4.73-5-4.41-3.12.42-2.3,6.47-5.42,6.9s-3.94-5.62-7.06-5.19-2.29,6.47-5.41,6.9A2.15,2.15,0,0,1,248,76.59Zm-.33,1.08H273.2l-1.22-4h0a8,8,0,0,1-2.5-2.62c-1.06-1.5-1.77-2.4-2.78-2.27s-1.45,1.2-2.06,2.93-1.31,3.69-3.35,4-3.23-1.42-4.29-2.92-1.76-2.4-2.77-2.27-1.45,1.2-2.07,2.93-1.3,3.69-3.34,4l-.44,0a3.21,3.21,0,0,1-.63-.06" transform="translate(-99.37 0.19)"/><path class="cls-91" d="M247.66,77.67H273.2l-1.22-4h0a8,8,0,0,1-2.5-2.62c-1.06-1.5-1.77-2.4-2.78-2.27s-1.45,1.2-2.06,2.93-1.31,3.69-3.35,4-3.23-1.42-4.29-2.92-1.76-2.4-2.77-2.27-1.45,1.2-2.07,2.93-1.3,3.69-3.34,4l-.44,0a3.21,3.21,0,0,1-.63-.06" transform="translate(-99.37 0.19)"/><path class="cls-92" d="M257.32,77.67h-9.66l.33-1.08a2.15,2.15,0,0,0,.72,0c3.12-.43,2.29-6.48,5.41-6.9s3.95,5.61,7.06,5.19,2.3-6.48,5.42-6.9c2.3-.32,3.35,2.88,5,4.42l1.6,5.24H257.32Z" transform="translate(-99.37 0.19)"/><path class="cls-93" d="M254.23,70.5c-1,.14-1.45,1.2-2.07,2.93s-1.3,3.69-3.34,4l-.44,0a3.21,3.21,0,0,1-.63-.06l-.09.3h2.44a5.78,5.78,0,0,0,.74,0c2.85-.39,2.4-5.48,4.69-6.67A1.6,1.6,0,0,0,254.23,70.5Zm12.47-1.71c-1,.14-1.45,1.2-2.06,2.93-.56,1.58-1.19,3.35-2.85,3.86a2.16,2.16,0,0,0,1.52.35c2.86-.39,2.41-5.48,4.7-6.67A1.62,1.62,0,0,0,266.7,68.79Z" transform="translate(-99.37 0.19)"/><path class="cls-22" d="M272,73.68a8,8,0,0,1-2.5-2.62c-1.06-1.5-1.77-2.4-2.78-2.27s-1.45,1.2-2.06,2.93-1.31,3.69-3.35,4-3.23-1.42-4.29-2.92-1.76-2.4-2.77-2.27-1.45,1.2-2.07,2.93-1.3,3.69-3.34,4l-.44,0a3.21,3.21,0,0,1-.63-.06l.24-.78a2.15,2.15,0,0,0,.72,0c3.12-.43,2.29-6.48,5.41-6.9s3.95,5.61,7.06,5.19,2.3-6.48,5.42-6.9c2.3-.32,3.35,2.88,5,4.42Z" transform="translate(-99.37 0.19)"/></g><circle class="cls-45" cx="161.26" cy="12.1" r="9.96"/><circle class="cls-94" cx="161.26" cy="12.1" r="9.96"/><path class="cls-95" d="M269,16.06a6.72,6.72,0,0,0-.54-1c-.47,2.33-1.73,3.33-3.52,3a12.16,12.16,0,0,1-.27,2.94,10,10,0,0,0,4.64-4.16A5.38,5.38,0,0,0,269,16.06Z" transform="translate(-99.37 0.19)"/><path class="cls-96" d="M263.83,21.34l-.27.09-.28.08a5.67,5.67,0,0,0,.3-1.19,7.53,7.53,0,0,0,.08-1.67,4,4,0,0,1-3,1.45,2.38,2.38,0,0,1-2.56-1.79c-.2.48-.38,1-.56,1.46s-.33,1-.48,1.46a9.8,9.8,0,0,0,3.47.64,10.06,10.06,0,0,0,3.48-.6h0l-.11,0Z" transform="translate(-99.37 0.19)"/><path class="cls-97" d="M261.35,8.19l-3,.86c.69,4.11-2.82,7.24-3.29,11.11q-.36-.24-.69-.51c0-3.51,2.85-6.61,2.52-10.08-2.27.93-4.7,2.08-6,4.24a9.85,9.85,0,0,1-.15-1.09,12.69,12.69,0,0,1,5.77-4.49c-1-1.76-3.51-1.64-4.91-.44a9.63,9.63,0,0,1,1.12-1.88,4,4,0,0,1,5.2,1.75,28.07,28.07,0,0,1,2.95-.94c-.23-.66-.49-1.31-.77-1.94-2.23.24-4.46-.24-6.64.25a8.28,8.28,0,0,1,1-.89c1.67-.32,3.38-.28,5-.56a5.64,5.64,0,0,0-1-1.39A10.21,10.21,0,0,1,259.89,2a8.63,8.63,0,0,1,1,1.34,8.74,8.74,0,0,0,2.62-.94l.65.22a8.48,8.48,0,0,1-2.68,1.78,20.31,20.31,0,0,1,.87,2A15.81,15.81,0,0,1,265,6a2.7,2.7,0,0,1,.72-2.7c.25.15.5.31.74.48a2.47,2.47,0,0,0-.07,2.25,7.93,7.93,0,0,1,2.82.72,8.82,8.82,0,0,1,.67,1.34,7,7,0,0,0-2.93-.67c.88,2,2.76,3.39,3.64,5.43a11.27,11.27,0,0,1-.3,1.64c-.83-2.77-3.82-4.25-4.81-7a20.06,20.06,0,0,0-2.55.36c.31,1,.59,1.94.84,2.92,3-.28,5.39,2.3,6.11,5a11.34,11.34,0,0,1-.57,1.16c-.66-2.2-2.75-4.54-5.16-4.5.55,2.83,1.16,5.79.52,8.66a9.8,9.8,0,0,1-1.35.48c1-2.77-.12-6-.63-8.76-3.19,1.55-4.52,5.27-5.55,8.48q-.39-.15-.75-.33c.51-3.79,2.08-8.18,5.88-9.77-.26-1-.56-2-.88-2.94" transform="translate(-99.37 0.19)"/><path class="cls-98" d="M254.37,19.32A11.73,11.73,0,0,1,255.2,16c-3-.13-2.66-2.89-2.29-4.34a7.28,7.28,0,0,0-2.06,2.15,9.94,9.94,0,0,0,3.52,5.84A2.73,2.73,0,0,1,254.37,19.32Z" transform="translate(-99.37 0.19)"/><path class="cls-99" d="M265,6a15.81,15.81,0,0,0-2.59.32,20.31,20.31,0,0,0-.87-2,8.58,8.58,0,0,0,2.67-1.77,10,10,0,0,1,1.51.72A2.71,2.71,0,0,0,265,6Zm4.64,7.08c-1.25-2-3.36-3.37-4.16-5.63a19.81,19.81,0,0,0-2.55.36c.31,1,.59,1.94.84,2.92,2.93-.29,5.41,2.3,6.11,5a10,10,0,0,0,.41-1.2A5.67,5.67,0,0,0,269.6,13.1Zm-8.68-1.26a7.88,7.88,0,0,1,1.31-.71c-.26-1-.56-2-.88-2.94l-3,.86c.7,4-2.81,7.27-3.29,11.11a8.63,8.63,0,0,0,1.29.74C256.8,17.58,258.06,13.8,260.92,11.84Zm-8-6a4,4,0,0,1,4.93,1.86,28.07,28.07,0,0,1,2.95-.94c-.23-.66-.49-1.31-.77-1.94-2.22.24-4.45-.23-6.64.25a10.43,10.43,0,0,0-.74.88Z" transform="translate(-99.37 0.19)"/><path class="cls-97" d="M261.35,8.19l-3,.86c.69,4.11-2.82,7.24-3.29,11.11q-.36-.24-.69-.51c0-3.51,2.85-6.61,2.52-10.08-2.27.93-4.7,2.08-6,4.24a9.85,9.85,0,0,1-.15-1.09,12.69,12.69,0,0,1,5.77-4.49c-1-1.76-3.51-1.64-4.91-.44a9.63,9.63,0,0,1,1.12-1.88,4,4,0,0,1,5.2,1.75,28.07,28.07,0,0,1,2.95-.94c-.23-.66-.49-1.31-.77-1.94-2.23.24-4.46-.24-6.64.25a8.28,8.28,0,0,1,1-.89c1.67-.32,3.38-.28,5-.56a5.64,5.64,0,0,0-1-1.39A10.21,10.21,0,0,1,259.89,2a8.63,8.63,0,0,1,1,1.34,8.74,8.74,0,0,0,2.62-.94l.65.22a8.48,8.48,0,0,1-2.68,1.78,20.31,20.31,0,0,1,.87,2A15.81,15.81,0,0,1,265,6a2.7,2.7,0,0,1,.72-2.7c.25.15.5.31.74.48a2.47,2.47,0,0,0-.07,2.25,7.93,7.93,0,0,1,2.82.72,8.82,8.82,0,0,1,.67,1.34,7,7,0,0,0-2.93-.67c.88,2,2.76,3.39,3.64,5.43a11.27,11.27,0,0,1-.3,1.64c-.83-2.77-3.82-4.25-4.81-7a20.06,20.06,0,0,0-2.55.36c.31,1,.59,1.94.84,2.92,3-.28,5.39,2.3,6.11,5a11.34,11.34,0,0,1-.57,1.16c-.66-2.2-2.75-4.54-5.16-4.5.55,2.83,1.16,5.79.52,8.66a9.8,9.8,0,0,1-1.35.48c1-2.77-.12-6-.63-8.76-3.19,1.55-4.52,5.27-5.55,8.48q-.39-.15-.75-.33c.51-3.79,2.08-8.18,5.88-9.77-.26-1-.56-2-.88-2.94" transform="translate(-99.37 0.19)"/><circle class="cls-100" cx="161.22" cy="11.76" r="9.33"/></g><path class="cls-22" d="M122.8,63.65a6.35,6.35,0,0,1,3.58-2,1.76,1.76,0,0,1,2,2.49,5.41,5.41,0,0,1-1.53,2.16c-.16.14-.31.26-.5.45.2.11.39.15.53.23a2.53,2.53,0,0,1,1.38,3.28,3.66,3.66,0,0,1-4.76,2.33c-.45-.19-.88-.45-1.36-.68h0c-1.33,1.07-2.15-.41-2.22-1.63a25.12,25.12,0,0,1,.09-5.62,4.78,4.78,0,0,1,.44-1.25.87.87,0,0,1,.91-.55.9.9,0,0,1,.81.7c.07.17.11.34.21.62C122.52,64,122.66,63.81,122.8,63.65Zm1.12,7.24a2.57,2.57,0,0,0,2.8-1.27,1.07,1.07,0,0,0-.57-1.6,2.19,2.19,0,0,0-2.08-.06,1.47,1.47,0,0,1-1.87-.19,11.7,11.7,0,0,0,.12,2.61C122.87,70.55,123.36,70.75,123.92,70.89Zm2.15-6.65c2.67-2.45-3.13.06-3.75,2.5A22.45,22.45,0,0,0,126.07,64.24Zm10.61,4.11a10,10,0,0,1,1.28.87,1,1,0,0,1,.34,1.34,1.18,1.18,0,0,1-1.39.38c-.42-.14-.81-.33-1.18-.49-1.11-.54-2.21-1-3.33-1.54a.59.59,0,0,0-.23,0c0,.42,0,.84,0,1.25,0,.58,0,1.13,0,1.71a1.94,1.94,0,0,1-.14.77,1.1,1.1,0,0,1-2,.08,2.36,2.36,0,0,1-.23-1c-.05-1-.05-1.92-.05-2.88a43.73,43.73,0,0,1,.23-6.17c0-.11.05-.2.08-.31a.86.86,0,0,1,.67-.65.77.77,0,0,1,.8.42.33.33,0,0,1,.11.11,2.73,2.73,0,0,1,.47-.27,6.78,6.78,0,0,1,3.41-1,5.61,5.61,0,0,1,2,.45c3.49,1.83.39,5.47-2,6.43C135.67,67.93,136.49,68.22,136.68,68.35ZM132.28,64a.45.45,0,0,0-.25.45c.05.55.08,1.09.11,1.62,0,.2,0,.38,0,.6C136.88,67.2,138,60.87,132.28,64Zm9.46,6.88a7.76,7.76,0,0,0,0,.95v.51c-.12.63-.79.77-1.27.28a1.93,1.93,0,0,1-.51-1,11.46,11.46,0,0,1,1.19-8.2c1.24-2.16,3.9-2.54,5.3-.08a7.06,7.06,0,0,1,.82,2.51,22.19,22.19,0,0,1,.05,5.52,1.19,1.19,0,0,1-.17.56c-.1.31-.28.55-.64.49a.84.84,0,0,1-.66-.63,4.24,4.24,0,0,1-.27-1.29C144.25,70.64,143,70.75,141.74,70.87Zm3.44-5.09a7.45,7.45,0,0,0-.52-1.48c-.2-.46-.43-.49-.79-.2a3.75,3.75,0,0,0-1,1.44,14.81,14.81,0,0,0-1.06,3.63.93.93,0,0,0,0,.23l3.6-.35A16.93,16.93,0,0,0,145.18,65.78Zm6.27,5.14a15.21,15.21,0,0,1,3.78-.39,5.4,5.4,0,0,1,1,.14.93.93,0,0,1,.78,1c-.11.42-.53.68-1.15.7s-1.18,0-1.74.07c-1.06.11-2.12.3-3.19.47a6.9,6.9,0,0,1-1,.15c-1.17.13-2-.55-1.82-1.5a4.46,4.46,0,0,1,.61-1.42,24.79,24.79,0,0,1,3.13-4c.66-.67,1.3-1.34,1.9-2,.39-.42.78-.93,0-.93A11.15,11.15,0,0,0,150,64c-.79.14-.77-.65-.31-1a5,5,0,0,1,1.14-.67,7.83,7.83,0,0,1,4-.67c1.14.14,1.79.84,1.72,1.8-.13,1.75-2.68,3.67-3.71,4.87-.64.76-1.21,1.56-1.82,2.32-.06.12-.14.22-.24.42C151.09,71,151.28,71,151.45,70.92Zm7-8.15a1.24,1.24,0,0,1,.17-.42.92.92,0,0,1,.93-.52c1.15.09,1.05,1.77,1,2.6-.21,2-.27,4-.37,6.07a4.46,4.46,0,0,1-.24,1c-.64,1.29-2,.4-2-.73a33.4,33.4,0,0,1,.31-7A6,6,0,0,1,158.43,62.77Zm8,8.47a.67.67,0,0,1-.2.87,2.88,2.88,0,0,1-2.42.84,2.23,2.23,0,0,1-1.9-2.25c-.08-2.24,0-4.47.15-6.74.06-.88.14-3.27,1.52-3.11a1.11,1.11,0,0,1,1,.7,4.48,4.48,0,0,1,.11,1.21c.06,2.51-.16,4.92-.22,7.31,0,.94.22.85,1,.85A1.18,1.18,0,0,1,166.39,71.24Zm8-.86a5.25,5.25,0,0,1,1.11,0c1.16.12,1.31,1.09.31,1.47a8,8,0,0,1-3.44.65A1.65,1.65,0,0,1,170.82,70a7.52,7.52,0,0,1,.8-1.43,44,44,0,0,0,2.44-3.76c1.25-2.37-.75-1.24-1.51-.13a.82.82,0,0,1-.9.11.72.72,0,0,1-.27-.88,2.63,2.63,0,0,1,.58-1A3.25,3.25,0,0,1,175,62a2,2,0,0,1,1.72,2,6.34,6.34,0,0,1-1.35,3.26c-.55.85-1.16,1.68-1.73,2.54a6.56,6.56,0,0,0-.42.66C173.73,70.49,174.1,70.41,174.43,70.38Zm3.93.79a9.22,9.22,0,0,1,.12-7.21c.82-1.69,3.24-2.32,4.14-.35s1.1,7.23-1,8.61A2.34,2.34,0,0,1,178.36,71.17Zm1.87-2.2c.3,1.48.67,2.12,1.16.91a8.28,8.28,0,0,0,.1-5c-.47-1.19-.78-.52-1.09.59A8.45,8.45,0,0,0,180.23,69Zm7.66,1.41a5.31,5.31,0,0,1,1.12,0c1.15.12,1.3,1.09.31,1.47a8,8,0,0,1-3.44.65,1.66,1.66,0,0,1-1.6-2.44,7.06,7.06,0,0,1,.81-1.43c.78-1.24,1.75-2.41,2.43-3.76,1.25-2.37-.75-1.24-1.5-.13a.82.82,0,0,1-.9.11.71.71,0,0,1-.28-.88,2.66,2.66,0,0,1,.59-1,3.23,3.23,0,0,1,3.06-.92,2,2,0,0,1,1.72,2,6.41,6.41,0,0,1-1.34,3.26c-.56.85-1.17,1.68-1.74,2.54-.12.17-.25.37-.42.66C187.19,70.49,187.56,70.41,187.89,70.38Zm6.83,0a5.31,5.31,0,0,1,1.12,0c1.15.12,1.3,1.09.3,1.47a7.94,7.94,0,0,1-3.43.65,1.66,1.66,0,0,1-1.6-2.44,7.06,7.06,0,0,1,.81-1.43c.78-1.24,1.75-2.41,2.43-3.76,1.25-2.37-.75-1.24-1.5-.13a.82.82,0,0,1-.9.11.71.71,0,0,1-.28-.88,2.66,2.66,0,0,1,.59-1,3.23,3.23,0,0,1,3.06-.92,2,2,0,0,1,1.72,2,6.41,6.41,0,0,1-1.34,3.26c-.56.85-1.17,1.68-1.74,2.54-.12.17-.25.37-.42.66C194,70.49,194.39,70.41,194.72,70.38Z" transform="translate(-99.37 0.19)"/><path class="cls-22" d="M136.74,55V33.69a1.66,1.66,0,0,1,.37-1.23,1.69,1.69,0,0,1,1.22-.36h10.51v4.41h-7.55v5.06h6.18v4.26h-6.18v4.73h7.8V55ZM195.62,32.1V48.76a3,3,0,0,1-.68,2.08,2.14,2.14,0,0,1-2.6.18,2.58,2.58,0,0,1-.94-2.24V32.1h-2.94a1.67,1.67,0,0,0-1.23.36,1.7,1.7,0,0,0-.37,1.23V49.3a6.86,6.86,0,0,0,1.2,3.76c1.75,2.56,5.66,3,8.46,1.91a5.61,5.61,0,0,0,3.37-3.7c.56-.12.2-18.29.29-19.17Zm-81,4.62a5.86,5.86,0,0,0-4.08-4.8,9,9,0,0,0-5.47.2,5.61,5.61,0,0,0-3.37,3.7c-.56.14-.2,18.28-.3,19.17H106V38.31h0a3,3,0,0,1,.69-2.07A2.08,2.08,0,0,1,110,37a3.88,3.88,0,0,1,.22,1.32v3.26H107.7v4.26h2.49V55h4.55V37.79a6.79,6.79,0,0,0-.11-1.07m48.18,8.35a4.35,4.35,0,0,0-1.62-1.17c2.92-1.15,3.34-5.49,2.29-8.31-.93-2.38-3.45-3.53-6.23-3.49h-5.13a1.74,1.74,0,0,0-1.23.36,1.7,1.7,0,0,0-.37,1.23V55H155V35.9h2a2.49,2.49,0,0,1,1.87.71,3.23,3.23,0,0,1,.7,2.34c0,1.89-1.26,2.59-2.79,2.62v4.26c1.63-.13,2.45,1.05,2.42,2.59V55h4.55V47.85a4.4,4.4,0,0,0-.88-2.78M170.2,55V32.1h-2.95a1.74,1.74,0,0,0-1.23.36,1.67,1.67,0,0,0-.37,1.24V55ZM121,55V41.39l3.26,10.2h2.95l3.27-10.2V55h4.41V33.69a1.34,1.34,0,0,0-1.6-1.59h-3.2L125.8,44.26,121.41,32.1H118.2a1.69,1.69,0,0,0-1.22.36,1.66,1.66,0,0,0-.37,1.23V55Zm57.73.51c3,0,5.59-1.35,6.44-4.21.49-1.41.27-4,.31-5.46H181a29.94,29.94,0,0,1-.12,3.91,2.13,2.13,0,0,1-.6,1.12,2.48,2.48,0,0,1-2.66.24,2.54,2.54,0,0,1-1.05-2.32V38.3c0-1.32.67-2.67,2.22-2.59S181,36.88,181,38.3v3.27h4.54a34.91,34.91,0,0,0-.17-5.31c-.72-3-3.29-4.77-6.58-4.68-3,0-5.58,1.32-6.45,4.22a7.46,7.46,0,0,0-.3,2V49.28c.05,3.84,2.83,6.32,6.75,6.22m36.39-14a11.44,11.44,0,0,0,.41-3.1h0a5.9,5.9,0,0,0-2.65-5.27,7.63,7.63,0,0,0-4.11-1h-5.13a1.69,1.69,0,0,0-1.22.36,1.66,1.66,0,0,0-.37,1.23V55h4.45V35.9h2a2.55,2.55,0,0,1,1.88.71,3.27,3.27,0,0,1,.7,2.34c0,1.88-1.27,2.59-2.8,2.62v4.26h.15c3.1.12,5.86-1.37,6.73-4.35" transform="translate(-99.37 0.19)"/><path class="cls-22" d="M145.69,27.33V16.6a.88.88,0,0,1,.19-.63.87.87,0,0,1,.62-.18h5.33V18H148v2.43h3.24v2.15H148v4.74Zm7.06,0V16.6a.88.88,0,0,1,.19-.63.87.87,0,0,1,.62-.18h1.49V27.33Zm3.52,0V16.6a.68.68,0,0,1,.81-.81h2.6a3.18,3.18,0,0,1,3.17,4.55,2.19,2.19,0,0,1-1.11,1.18c1.51.54,1.75,2.68,1.2,4a2.86,2.86,0,0,1-1.8,1.65C160.26,27.48,157.25,27.28,156.27,27.33Zm2.25-6.78h1a1.26,1.26,0,0,0,1.35-1.4,1.26,1.26,0,0,0-1.35-1.41h-1Zm0,4.8h1a1.28,1.28,0,0,0,1.35-1.44,1.28,1.28,0,0,0-1.35-1.44h-1Zm5.76,2V18.66a3,3,0,0,1,1.84-2.87c1.42-.52,3.39-.33,4.27,1a3.32,3.32,0,0,1,.37.69,2.91,2.91,0,0,1,.18.67,2.84,2.84,0,0,1,.05.54v8.67H168.7V23.44h-2.13v3.89Zm2.29-6h2.13a17.84,17.84,0,0,0-.11-3,1,1,0,0,0-1.67-.38,1.12,1.12,0,0,0-.29.56C166.53,18.75,166.59,20.93,166.57,21.29Z" transform="translate(-99.37 0.19)"/><path class="cls-22" d="M180.75,24.64a29.74,29.74,0,0,0-1.57-4.34,29.67,29.67,0,0,0-1.37-2.84,24.71,24.71,0,0,0-4.93-6.14,22.4,22.4,0,0,0-6.73-4.17,21.29,21.29,0,0,0-7.81-1.48,21.53,21.53,0,0,0-7.81,1.48,22.35,22.35,0,0,0-6.73,4.18,24.76,24.76,0,0,0-4.93,6.14,27.72,27.72,0,0,0-1.49,3.11,29.2,29.2,0,0,0-1.44,4.07l0,.06a.17.17,0,0,0,.1.21h.05a.18.18,0,0,0,.1,0,.12.12,0,0,0,.05-.07h0l0,0s0,0,0-.05a22,22,0,0,1,.95-2.23,24,24,0,0,1,14.27-11.35,24.68,24.68,0,0,1,13.77,0,24,24,0,0,1,14.28,11.37,22.67,22.67,0,0,1,.93,2.2s0,0,0,.05,0,0,0,0h0l0,0a.1.1,0,0,0,0,.05.14.14,0,0,0,.14,0,.17.17,0,0,0,.1-.2Zm-1.91-4.26a22.34,22.34,0,0,0-1.35-2.17,22.87,22.87,0,0,0-5.2-5.19,23.85,23.85,0,0,0-6.61-3.32,24.66,24.66,0,0,0-7.34-1.13A24.34,24.34,0,0,0,151,9.71,23.32,23.32,0,0,0,144.4,13a22.47,22.47,0,0,0-5.2,5.19,20.82,20.82,0,0,0-1.34,2.15,26,26,0,0,1,1.49-2.62,25.41,25.41,0,0,1,5-5.76,21.59,21.59,0,0,1,14-5.2,20.52,20.52,0,0,1,7.42,1.35A22.47,22.47,0,0,1,172.31,12,26.35,26.35,0,0,1,178.84,20.38Z" transform="translate(-99.37 0.19)"/></g></g></g></svg>